<svg viewBox="0 0 400 400" xmlns="http://www.w3.org/2000/svg" height="400" width="400" id="Analyze-Data-3--Streamline-Brooklyn.svg">
	<desc>
		Analyze Data 3 Streamline Illustration: https://streamlinehq.com
	</desc>
	<path d="M132.832 84.45c-3.724 3.488 -18.4 17.372 -22.674 20.118 -0.6 -0.73 -9.6 -12.856 -9.6 -12.856a1.76 1.76 0 0 0 -2.9 0.068L77.528 122.152l-12.744 -5.024a1.52 1.52 0 0 0 -1.826 0.502L35.282 154.92a1.214 1.214 0 0 0 1.05 1.94l94.376 -6.46a1.748 1.748 0 0 0 1.622 -1.644l3.54 -62.888a1.8 1.8 0 0 0 -3.038 -1.418Z" fill="#fb0d12" stroke-width="1">
	</path>
	<path d="M144.314 239.078 18.86 257.712a4.614 4.614 0 0 1 -5.332 -4.658V72.522a5 5 0 0 1 1.428 -3.242 4.51 4.51 0 0 1 3.288 -1.324c19.956 0.342 176.352 2.99 186.422 3.15a5.096 5.096 0 0 1 4.876 4.75v103.054a1.42 1.42 0 0 0 2.8 0V75.856a7.67 7.67 0 0 0 -7.638 -7.97c-10.048 -0.2 -166.442 -3.15 -186.4 -3.516a8.058 8.058 0 0 0 -8.266 8.152c0 193.24 -0.384 181.3 0.8 183.888a8.086 8.086 0 0 0 8.524 4.59l125.318 -19.546a1.224 1.224 0 0 0 1 -1.37 1.2 1.2 0 0 0 -1.366 -1.006Zm125.272 -19.066 -15.756 2.2a5.678 5.678 0 0 1 -5.914 -3.288c-0.76 -1.734 -0.4 3.054 -0.23 -57.8a5.306 5.306 0 0 1 4.934 -5.296c76.8 -5.22 73.4 -5.574 75.4 -4.864a5.666 5.666 0 0 1 3.836 5.274l0.16 13.358a1.2 1.2 0 0 0 2.42 0c0.098 -14.374 0.432 -14.53 -0.48 -16.738a8.576 8.576 0 0 0 -8.4 -5.2c-6.896 0.412 -63.756 3.974 -73.164 4.6a8.91 8.91 0 0 0 -8.312 8.882c0.024 7.696 0.2 49.758 0.252 55.466a8.568 8.568 0 0 0 9.934 8.4l15.686 -2.6a1.2 1.2 0 0 0 1 -1.37 1.22 1.22 0 0 0 -1.366 -1.024Zm56.79 -149.568c-80.2 -1.972 -74.476 -2.116 -76.726 -1.188a8.822 8.822 0 0 0 -5.536 8.084v55.694a8.722 8.722 0 0 0 9.35 8.768l73.368 -4.978a8.318 8.318 0 0 0 7.878 -8.676V78.642a8.586 8.586 0 0 0 -8.334 -8.176Zm-0.024 2.42a5.826 5.826 0 0 1 4 1.758 5.636 5.636 0 0 1 1.416 4.02v49.506A5.678 5.678 0 0 1 326.6 133.4l-73.4 4.818a5.274 5.274 0 0 1 -5.56 -5.184c0 -60.818 -0.162 -56.354 0.378 -57.726a5.31 5.31 0 0 1 2.9 -2.854c1.474 -0.58 -4.318 -0.46 75.422 0.434Z" fill="#1d3547" stroke-width="1">
	</path>
	<path d="M38.042 153.714c4.704 -0.366 92.458 -6.258 92.458 -6.258a1.188 1.188 0 0 1 1.3 1.096 1.23 1.23 0 0 1 -1.118 1.326l-94.308 7.558a1.73 1.73 0 0 1 -1.346 -0.48c-0.366 -0.342 -0.276 -0.822 -0.276 -1.324V85.758c0 -0.64 0.846 -1.188 1.486 -1.188a1.214 1.214 0 0 1 1.21 1.188s0.594 62.932 0.594 67.956Z" fill="#1d3547" stroke-width="1">
	</path>
	<path d="M270.334 186.57c2 -0.4 3.8 -5.58 4.8 -7.58a1.236 1.236 0 0 1 1.62 -0.618 1.212 1.212 0 0 1 0.618 1.6 29.692 29.692 0 0 1 -3.084 7.626c-1.622 2.236 -4.452 3.448 -6.416 1.484 -1.576 -1.532 -2.086 -4.968 -4.27 -6.828 -0.898 -0.838 -1.6 -0.6 -2.558 0.16a13.818 13.818 0 0 0 -1.964 1.964 31.526 31.526 0 0 0 -4.36 8.952 1.174 1.174 0 0 1 -1.484 0.844 1.2 1.2 0 0 1 -0.846 -1.438 26.318 26.318 0 0 1 3.95 -10.482c4.534 -6.046 9.336 -5.674 13.016 2.33a6.51 6.51 0 0 0 0.978 1.986Z" fill="#fb0d12" stroke-width="1">
	</path>
	<path d="M278.8 81.4a22.708 22.708 0 0 0 0 45.4 22.024 22.024 0 0 0 21.58 -22.696c-0.25 -11.82 -9.082 -22.704 -21.58 -22.704Zm0 41.904a18.832 18.832 0 0 1 -18.4 -19.2c0 -11.276 9.26 -19.884 19.386 -19.2 -0.178 3.086 -1.1 16.148 -1.214 18.91a1.8 1.8 0 0 0 2.694 1.576 166.774 166.774 0 0 0 14.512 -10c5.958 12.986 -3.378 28.024 -16.978 27.904Z" fill="#fb0d12" stroke-width="1">
	</path>
	<path d="M149.544 172.864a1.238 1.238 0 0 0 -1.302 -1.14S49.138 178.048 42 178.55a6.726 6.726 0 0 0 -6.232 6.578c-0.068 4.84 -0.6 53.958 -0.6 53.958a1.2 1.2 0 0 0 2.4 0.046s0.836 -25.666 1.35 -41.714l12.24 -0.784c-0.682 12.358 -1.482 28.782 -1.4 41.114a1.212 1.212 0 1 0 2.42 0.114c1.282 -12.776 2 -28.524 2.47 -41.454 20.638 -1.328 72.116 -5.074 76.554 -5.498 -0.814 12.51 -1.586 25 -1.586 36a1.224 1.224 0 0 0 2.444 0.138c1.01 -10.88 1.958 -22.498 2.674 -36.478 2.742 -0.27 4.308 -0.434 4.308 -0.434a1.218 1.218 0 0 0 1.118 -1.3 1.2 1.2 0 0 0 -1.3 -1.12s-1.45 0.058 -4 0.176c0.15 -3.4 0.224 -9.324 0.234 -12.744l13.302 -1a1.222 1.222 0 0 0 1.148 -1.284ZM39 194.986c0.158 -4.94 0.274 -8.628 0.306 -9.79a3.178 3.178 0 0 1 2.97 -3.106c1.168 -0.078 4.8 -0.346 10.078 -0.736 -0.266 3.078 -0.846 9.856 -1.022 12.418 -0.332 0.028 -10.532 1.028 -12.332 1.214Zm92.4 -6.936c0.21 0 -51.342 3.452 -76.654 5.45 0.068 -2.332 0.138 -11.096 0.136 -12.334 19.62 -1.458 56.706 -4.248 77.8 -5.838 -0.146 1.418 -1.082 10.514 -1.282 12.722Z" fill="#1d3547" stroke-width="1">
	</path>
	<path d="M148.68 96.96a30.362 30.362 0 0 0 6.074 0.068A47.814 47.814 0 0 0 163.706 96a1.21 1.21 0 0 0 -0.046 -2.42c-1.28 -0.16 -2.534 -0.342 -3.836 -0.388a64.416 64.416 0 0 0 -7.628 0.502 33.15 33.15 0 0 0 -3.744 0.892 1.17 1.17 0 0 0 -1.074 1.3 1.218 1.218 0 0 0 1.302 1.074Z" fill="#1d3547" stroke-width="1">
	</path>
	<path d="M182.306 95.456a47.384 47.384 0 0 0 8.632 -0.07 29.622 29.622 0 0 0 5.8 -0.822 1.224 1.224 0 0 0 -0.138 -2.442 35 35 0 0 0 -5.6 -0.32 26.4 26.4 0 0 0 -9 1.278 1.2 1.2 0 1 0 0.296 2.376Z" fill="#1d3547" stroke-width="1">
	</path>
	<path d="M146.17 111.188a48.986 48.986 0 0 0 4.91 0.616 88.462 88.462 0 0 0 9.864 -0.16c1.644 -0.158 3.266 -0.456 4.888 -0.73a1.212 1.212 0 1 0 -0.138 -2.42 108.726 108.726 0 0 0 -14.6 -0.138c-1.326 0.038 -4.302 0.388 -4.864 0.434a1.2 1.2 0 0 0 -0.068 2.4Z" fill="#fb0d12" stroke-width="1">
	</path>
	<path d="M178.048 109.85a57.572 57.572 0 0 0 5.938 0.616 109.176 109.176 0 0 0 11.828 -0.32c1.986 -0.182 3.928 -0.502 5.868 -0.776a1.212 1.212 0 1 0 -0.114 -2.42c-1.416 -0.068 -2.832 -0.16 -4.248 -0.182 -3.726 -0.092 -14.8 0.328 -15.276 0.364 -1.302 0.092 -2.6 0.23 -3.928 0.32a1.2 1.2 0 0 0 -0.068 2.4Z" fill="#fb0d12" stroke-width="1">
	</path>
	<path d="M151.144 129.684c0.696 0.066 1.948 0.252 2.878 0.252s4.542 -0.2 5.686 -0.366c0.98 -0.136 1.894 -0.388 2.854 -0.6a1.222 1.222 0 0 0 -0.046 -2.442 24.2 24.2 0 0 0 -8.768 -0.046 16.82 16.82 0 0 0 -2.856 0.822 1.2 1.2 0 1 0 0.252 2.374Z" fill="#1d3547" stroke-width="1">
	</path>
	<path d="M141.478 145.306c1.6 0.072 3.03 0.2 5.982 0.136 2.902 -0.066 9.072 -0.6 11.898 -1.026 1.964 -0.298 3.904 -0.754 5.868 -1.166a1.22 1.22 0 0 0 -0.32 -2.42 138.282 138.282 0 0 0 -14.158 0.844 81.472 81.472 0 0 0 -9.4 1.234 1.2 1.2 0 0 0 -1.118 1.278 1.184 1.184 0 0 0 1.248 1.12Z" fill="#fb0d12" stroke-width="1">
	</path>
	<path d="M184.906 128.114a15.438 15.438 0 0 0 2.352 0.478 31.2 31.2 0 0 0 4.772 0.024 21.634 21.634 0 0 0 2.42 -0.526 1.222 1.222 0 1 0 -0.068 -2.442 18.418 18.418 0 0 0 -5.664 -0.548 10.826 10.826 0 0 0 -3.858 0.616 1.234 1.234 0 0 0 -1.188 1.232 1.214 1.214 0 0 0 1.234 1.166Z" fill="#1d3547" stroke-width="1">
	</path>
	<path d="M176.944 144.09c1.744 0.04 3.468 0.15 6.098 0.092a101.98 101.98 0 0 0 18.2 -1.758 1.228 1.228 0 0 0 -0.23 -2.444 125.736 125.736 0 0 0 -14.546 0.458 64.4 64.4 0 0 0 -9.704 1.278 1.156 1.156 0 0 0 -1.096 1.278 1.2 1.2 0 0 0 1.278 1.096Z" fill="#fb0d12" stroke-width="1">
	</path>
	<path d="M43.66 203.73a5.722 5.722 0 0 0 0.114 3.928c0.438 1.636 2.062 1.578 2.422 -0.068a6.018 6.018 0 0 0 -0.138 -3.904c-0.22 -0.626 -0.548 -1.2 -1.21 -1.188s-1.02 0.592 -1.188 1.232Z" fill="#1d3547" stroke-width="1">
	</path>
	<path d="M72.438 207.108c8.916 -1.036 19.304 -1.8 34.914 -4.886a1.248 1.248 0 0 0 1.05 -1.4 1.226 1.226 0 0 0 -1.37 -1.028c-5.72 0.462 -4.488 0.19 -13.518 1.166a127.6 127.6 0 0 0 -21.534 3.768 1.23 1.23 0 0 0 -0.936 1.414 1.212 1.212 0 0 0 1.394 0.966Z" fill="#1d3547" stroke-width="1">
	</path>
	<path d="M68.2 224.38c0.2 0 2.236 0.034 3.106 -0.046a37.492 37.492 0 0 0 9.02 -1.894 1.22 1.22 0 0 0 -0.298 -2.422 30.014 30.014 0 0 0 -3.174 -0.068 43.222 43.222 0 0 0 -6.166 0.982 27.032 27.032 0 0 0 -2.968 1.096 1.23 1.23 0 0 0 -0.936 1.416 1.2 1.2 0 0 0 1.416 0.936Z" fill="#1d3547" stroke-width="1">
	</path>
	<path d="M163.62 198.076c10.702 -0.256 20.344 -2.326 30.918 -4a1.188 1.188 0 0 0 1.098 -1.3 1.222 1.222 0 0 0 -1.302 -1.12c-2.536 0.046 -5.046 0.114 -7.558 0.32a231 231 0 0 0 -23.4 3.722 1.2 1.2 0 1 0 0.25 2.374Z" fill="#fb0d12" stroke-width="1">
	</path>
	<path d="M153.284 216.174a325.82 325.82 0 0 0 32.744 -5.892 1.212 1.212 0 0 0 0.982 -1.4 1.236 1.236 0 0 0 -1.416 -1c-6.838 0.766 -5.934 0.474 -12.696 1.554a117.256 117.256 0 0 0 -20.14 4.384 1.2 1.2 0 0 0 0.526 2.354Z" fill="#fb0d12" stroke-width="1">
	</path>
	<path d="M174.814 224.2a90.328 90.328 0 0 0 11.852 -1.53 58.136 58.136 0 0 0 7.832 -1.734 1.224 1.224 0 0 0 -0.342 -2.422 59.908 59.908 0 0 0 -10.024 0.936 44.716 44.716 0 0 0 -9.82 2.4 1.2 1.2 0 0 0 0.502 2.352Z" fill="#fb0d12" stroke-width="1">
	</path>
	<path d="M310.218 93.024a25.528 25.528 0 0 0 2.9 0.4 42.492 42.492 0 0 0 5.868 -0.182 26.656 26.656 0 0 0 2.946 -0.662 1.23 1.23 0 0 0 1.118 -1.326 1.2 1.2 0 0 0 -1.324 -1.096 26.924 26.924 0 0 0 -6.942 -0.296 16.118 16.118 0 0 0 -4.68 0.754 1.184 1.184 0 0 0 -1.142 1.256 1.2 1.2 0 0 0 1.256 1.152Z" fill="#1d3547" stroke-width="1">
	</path>
	<path d="M310.264 105.11a7.362 7.362 0 0 0 4.476 -0.16c1.6 -0.386 1.61 -2.094 -0.07 -2.42a8.2 8.2 0 0 0 -4.498 0.2c-0.634 0.2 -1.164 0.548 -1.142 1.234s0.586 1.004 1.234 1.146Z" fill="#fb0d12" stroke-width="1">
	</path>
	<path d="M308.388 119a55.37 55.37 0 0 0 9.294 0.044 40.558 40.558 0 0 0 6.234 -0.662 1.24 1.24 0 0 0 1.2 -1.256 1.216 1.216 0 0 0 -1.232 -1.186 36.236 36.236 0 0 0 -7.878 -0.434 26.616 26.616 0 0 0 -7.878 1.118 1.2 1.2 0 1 0 0.25 2.376Z" fill="#fb0d12" stroke-width="1">
	</path>
	<path d="M287.964 229.754a4.86 4.86 0 0 0 3.172 0.524 7.09 7.09 0 0 0 5 -7.216 1.2 1.2 0 0 0 -1 -1.4 1.236 1.236 0 0 0 -1.416 0.982 16.8 16.8 0 0 1 -2.24 3.356 4 4 0 0 1 -1.53 1.074 3.06 3.06 0 0 1 -1.302 0.364 1.234 1.234 0 0 0 -1.508 0.822 1.2 1.2 0 0 0 0.824 1.494Z" fill="#1d3547" stroke-width="1">
	</path>
	<path d="M293.536 203.708c0.8 1.2 0 3.15 -1.8 4.338s-3.882 1.188 -4.68 0 0 -3.128 1.78 -4.338 3.906 -1.192 4.7 0Z" fill="#1d3547" stroke-width="1">
	</path>
	<path d="M235.092 225.014a23.544 23.544 0 0 1 3.4 5.412 26.552 26.552 0 0 1 2.58 12.378 30.66 30.66 0 0 1 -0.64 6.484 1.22 1.22 0 0 0 0.822 1.53 1.2 1.2 0 0 0 1.508 -0.822 26.344 26.344 0 0 0 1.736 -7.01 25.254 25.254 0 0 0 -2.946 -14.158 19.222 19.222 0 0 0 -4.8 -5.548 1.2 1.2 0 0 0 -1.66 1.734Z" fill="#1d3547" stroke-width="1">
	</path>
	<path d="M244.478 227.838c0.4 0.6 1.224 2.444 1.348 2.694a24.918 24.918 0 0 1 1.918 5.686c0.252 1.05 0.572 2.054 0.73 3.06a1.222 1.222 0 0 0 2.444 -0.024 18.47 18.47 0 0 0 0.2 -3.562 16.4 16.4 0 0 0 -2.306 -6.896 9.874 9.874 0 0 0 -2.6 -2.626 1.22 1.22 0 0 0 -1.712 -0.046 1.2 1.2 0 0 0 -0.022 1.714Z" fill="#1d3547" stroke-width="1">
	</path>
	<path d="M253.018 228.216c0.076 0.282 0.366 2.022 0.458 2.42 0.16 0.778 0.342 1.554 0.478 2.352s0.184 1.622 0.32 2.422c0.114 0.89 0.344 1.69 0.434 2.534a1.224 1.224 0 0 0 2.444 0.16 16.11 16.11 0 0 0 0.548 -2.8 15.432 15.432 0 0 0 -0.936 -5.71 10.8 10.8 0 0 0 -1.622 -2.512 1.2 1.2 0 0 0 -2.124 1.142Z" fill="#1d3547" stroke-width="1">
	</path>
	<path d="M264.4 248.564c3.652 2.224 8.524 4.624 13 7.902a1.216 1.216 0 0 1 -1.302 2.054c-4.304 -2.374 -8.836 -3.932 -14.66 -7.58a1.786 1.786 0 0 1 -0.8 -1.942 45.146 45.146 0 0 0 -0.844 -20.186 1.2 1.2 0 1 1 2.284 -0.776 34.8 34.8 0 0 1 2.322 20.528Z" fill="#1d3547" stroke-width="1">
	</path>
	<path d="M247.812 260.752c-10.77 3.494 -21.752 -3.888 -22.56 -14a11.052 11.052 0 0 1 0.16 -3.472 1.228 1.228 0 0 1 1.4 -1 1.244 1.244 0 0 1 0.982 1.4 8.696 8.696 0 0 0 0.16 2.672 14.842 14.842 0 0 0 19.502 10.8 1.76 1.76 0 0 1 1.644 0.2c4.356 3.244 6.084 4.254 12.262 9.294a1.21 1.21 0 0 1 0.25 1.714 1.222 1.222 0 0 1 -1.688 0.25c-4.038 -2.73 -8.166 -5.078 -12.112 -7.858Z" fill="#1d3547" stroke-width="1">
	</path>
	<path d="M234.666 239c-2.4 -5.8 -1.174 -4.946 -2.146 -5.456 -1.212 -0.638 -16.748 -8.928 -22.244 -12.328A36.486 36.486 0 0 0 209.832 188h0.022A36.644 36.644 0 0 0 160.6 171.126a37.2 37.2 0 1 0 45.716 56.388c2.278 1.306 4.774 2.322 6.954 3.562a194.956 194.956 0 0 0 19.524 9.704 1.4 1.4 0 0 0 1.872 -1.78Zm-43.148 -6.47A31.536 31.536 0 0 1 163.158 176.2a32.126 32.126 0 0 1 43.088 13.6h0.024a32.2 32.2 0 0 1 -14.752 42.728Z" fill="#1d3547" stroke-width="1">
	</path>
	<path d="M336.118 195.2a12.342 12.342 0 0 0 -6.074 -7.832 14.736 14.736 0 0 0 -5.138 -18.702c-8.078 -5.54 -21.2 -4.66 -28.36 -11.052 -2.04 -1.82 -3.664 -3.95 -6.668 -3.95a4.09 4.09 0 0 0 -4.156 4.4 6.96 6.96 0 0 0 -5.138 -0.116c-2.416 1.354 -1.35 4.276 -0.844 5.436a3.474 3.474 0 0 0 -3.47 3c-0.53 2.646 1.234 6.674 2.374 9.136 3.476 7.464 8.42 15.758 16.144 18.6 0 0.726 0.038 1.458 0.092 2.2 -3.302 -3.02 -10.628 0.302 -9.42 2.546 0.696 1.242 2.442 0.298 5.114 -0.092 2.128 -0.31 3.724 0.08 4.506 -0.45a36.562 36.562 0 0 0 3.178 11.054 1.814 1.814 0 0 0 2.056 0.96c3.816 -0.932 8.6 2.456 6.6 6.462a7.56 7.56 0 0 1 -5.412 2.946 1.756 1.756 0 0 0 -1.462 1.8 22.266 22.266 0 0 0 8.174 16.944 1.714 1.714 0 0 0 2.078 0.044c5 -3.634 8.772 -8.64 12.6 -13.29 5.542 -6.708 16.782 -17.36 13.226 -30.044Z" fill="#1d3547" stroke-width="1">
	</path>
	<path d="M389.982 321.38a92.052 92.052 0 0 0 -6.28 -19.2c-7.472 -17.838 -18.676 -33.82 -36.466 -41.8 -7.688 -3.418 -14.942 -3.552 -22.882 -4.956 0.492 -7.336 1 -7.554 0.16 -8.586a1.896 1.896 0 0 0 -1.324 -0.6 129 129 0 0 0 -14.654 0.576 39.6 39.6 0 0 0 -0.582 -7.944 1.21 1.21 0 1 0 -2.42 0.092 27.872 27.872 0 0 0 0.308 8.106c-3.154 0.322 -6.718 0.768 -11.262 1.476 0 -0.63 0.02 -5.968 -0.078 -7.378a1.476 1.476 0 0 0 -1.484 -1.346c-7.938 -0.108 -9.258 -11.16 -9.522 -19.09a1.822 1.822 0 0 0 -1.37 -1.69l-4.2 -1.072a248.464 248.464 0 0 1 8.746 -24.344 1.2 1.2 0 1 0 -2.2 -1c-3.634 7.746 -7.134 13.716 -10.48 26.2a1.782 1.782 0 0 0 1.324 2.2l4.636 1.2c0.462 9.048 2.694 19.832 11.76 20.506 0.06 0.624 0.28 4.51 0.378 6.222 -3.116 0.512 -6.242 1.072 -9.4 1.658a1.82 1.82 0 0 0 -1.462 1.666c-0.186 3.16 -0.5 5.128 -0.638 8.838 -29.686 11.278 -51.616 41.662 -53.2 73.254a1.236 1.236 0 0 0 1.142 1.278 1.2 1.2 0 0 0 1.278 -1.14c2.422 -36.034 33.216 -68.49 60.6 -71.698 1.712 -0.2 21.692 -2.468 24.272 -2.81 32.576 -4.176 53.422 13.574 66.434 43.314a90.026 90.026 0 0 1 6.462 18.542 1.22 1.22 0 0 0 1.416 0.982 1.254 1.254 0 0 0 0.988 -1.456Zm-91.734 -63.158a91.2 91.2 0 0 0 -14.05 2.658c0.094 -2.2 0.4 -5.38 0.538 -7a206.244 206.244 0 0 1 36.49 -4.064c-0.17 2.116 -0.286 4.178 -0.612 6.6 -3.7 0.184 -11.77 0.384 -22.366 1.806Z" fill="#1d3547" stroke-width="1">
	</path>
	<path d="M277.92 320c-0.044 0.676 -0.092 4.714 -0.092 5.388 0 1.972 -0.176 7.284 1.668 7.284 1.626 0 1.7 -3.484 1.918 -6.986a48.728 48.728 0 0 0 -0.114 -6.372c-0.328 -2.464 -0.566 -4.268 -1.918 -4.178 -1.152 0.088 -1.182 1.112 -1.462 4.864Z" fill="#1d3547" stroke-width="1">
	</path>
	<path d="M359.682 314.534c0.2 0.928 0.87 3.926 1.164 4.84 0.692 2.502 1.13 4.388 2.466 4.156 1.418 -0.244 1.15 -2.292 0.846 -4.978a61.78 61.78 0 0 0 -1.508 -6.85c-1.034 -3.106 -1.576 -4.452 -2.762 -4.156 -1.704 0.366 -0.766 4.254 -0.206 6.988Z" fill="#1d3547" stroke-width="1">
	</path>
</svg>
