<svg viewBox="0 0 400 400" xmlns="http://www.w3.org/2000/svg" height="400" width="400" id="Site-Builder-1--Streamline-Brooklyn.svg"><desc>Site Builder 1 Streamline Illustration: https://streamlinehq.com</desc><path d="M156.364 152.17a2.462 2.462 0 0 0 -0.268 -2.234c-0.216 -0.318 -0.6 -0.438 -0.85 -0.706s-0.152 -0.048 -0.122 -0.46a3.436 3.436 0 0 0 -0.17 -1.944 2.054 2.054 0 0 0 -1.4 -1.142c0 -3.248 -2.476 -4.256 -4.032 -2.988 -0.416 0.338 0.124 1 0.558 0.728 1.8 -1.126 2.4 1.53 2.284 2.77a0.586 0.586 0 0 0 0.582 0.584c1.92 -0.038 0.478 2.2 1.118 3.036 0.168 0.22 0.4 0.262 0.6 0.412a1.27 1.27 0 0 1 0.436 1.872 0.6 0.6 0 0 0 0.414 1c1.482 0.142 -0.048 2.574 -0.486 3.084 -1.874 2.18 -5.372 3.814 -7 6a0.432 0.432 0 0 0 0.486 0.632 19 19 0 0 0 4.032 -2.916 21.868 21.868 0 0 0 3.426 -3.012c0.99 -1.2 2.028 -3.886 0.392 -4.716Z" fill="#191919" stroke-width="1"></path><path d="M105.934 133.902a78.134 78.134 0 0 1 2.114 10.4c0.344 2.662 0.412 5.558 -2.09 6.874a6.228 6.228 0 0 1 -2.136 0.412c-0.34 0.052 -0.34 0.556 -0.098 0.706a3.358 3.358 0 0 0 3.74 -0.876c2.846 -2.566 1.7 -7.238 0.948 -10.978 -0.458 -2.284 -1.144 -4.51 -1.8 -6.754a0.358 0.358 0 0 0 -0.678 0.216Z" fill="#191919" stroke-width="1"></path><path d="M240.656 183.288c-16.366 1.286 -32.762 1.714 -49.118 3.108a0.694 0.694 0 0 0 -0.486 1.166c8.94 10.382 9.618 10.39 9.086 10.762A286.844 286.844 0 0 0 177.2 217.4a0.762 0.762 0 0 0 0 1.046q12 13.474 23.756 27.2a0.742 0.742 0 0 0 1.046 0c7.552 -7.298 15.352 -14.308 23.028 -21.474 3.134 3.4 6.35 6.724 9.424 10.154a0.698 0.698 0 0 0 1.166 -0.316q3.4 -24.958 5.686 -50.016a0.636 0.636 0 0 0 -0.65 -0.706Zm-6.146 48.972q-4.446 -4.848 -8.866 -9.668a0.754 0.754 0 0 0 -1.046 0c-7.702 7.112 -15.352 14.282 -23.028 21.448l-22.786 -26.064c6.68 -5.904 20.526 -17.306 22.98 -19.312a0.504 0.504 0 0 0 0.074 -0.704c-1.248 -1.568 -6.34 -7.434 -8.892 -10.324 15.62 -1.336 31.336 -1.53 46.956 -2.916q-2.188 23.832 -5.392 47.54Z" fill="#191919" stroke-width="1"></path><path d="M356.064 82.72c-7.77 -11.656 -20.614 -18.548 -31.288 -18.436 -40.1 0.416 -58.024 48.538 -31.36 73.068 17.674 16.26 47.158 16.048 61.896 -4.3a45.4 45.4 0 0 0 0.752 -50.332ZM361 106c-6.036 0.294 -8.102 1.292 -21.548 2.77a102.298 102.298 0 0 0 -2.112 -15.354c4.54 -1.034 15.11 -4.06 18.704 -6.242A42.848 42.848 0 0 1 361 106Zm-24.56 21.522c0 0.538 -11.6 -2.68 -28.494 -0.364a61.98 61.98 0 0 1 -2.914 -14.162c11.036 -0.094 21.57 -0.6 32.186 -1.676a94.846 94.846 0 0 1 -0.782 16.194Zm-31.554 -16.882a66.614 66.614 0 0 1 0.826 -14.916 103.952 103.952 0 0 0 29.368 -1.822 90.908 90.908 0 0 1 2.09 15.11c-10.304 1.022 -20.838 1.588 -32.288 1.62ZM355 85.296a126.312 126.312 0 0 1 -18.17 5.83c-1.828 -7.682 -5.264 -18.308 -10.032 -24.6a39.276 39.276 0 0 1 28.202 18.77ZM324.12 66c4.166 4.164 8.964 19.496 10.4 25.6a97.912 97.912 0 0 1 -28.422 1.87 72.286 72.286 0 0 1 11.88 -27.134 0.024 0.024 0 0 1 0.024 -0.024A51.158 51.158 0 0 1 324.12 66Zm-8.258 0.656a64.586 64.586 0 0 0 -11.8 26.574 49.8 49.8 0 0 1 -16.25 -4.542c5.628 -10.972 15.758 -19.716 28.05 -22.024Zm-28.956 23.862a47.988 47.988 0 0 0 16.712 4.98 70.172 70.172 0 0 0 -0.824 15.134c-6.15 0 -13.062 -0.4 -19.872 -0.438a42.868 42.868 0 0 1 3.984 -19.676Zm-3.862 21.45a155.472 155.472 0 0 0 19.92 1.044 70.036 70.036 0 0 0 2.816 14.478 37.138 37.138 0 0 0 -14.282 4.688 35.486 35.486 0 0 1 -8.454 -20.21Zm9.6 21.498a54.624 54.624 0 0 1 13.8 -3.96 67.236 67.236 0 0 0 8.016 16.178 42.278 42.278 0 0 1 -21.82 -12.218Zm25.02 12.8a70.252 70.252 0 0 1 -8.988 -17.054 95.768 95.768 0 0 1 27.448 0.632c-1.4 8.92 -3.692 14.658 -3.692 15.814a40.3 40.3 0 0 1 -14.772 0.61Zm17.15 -1.264a71.54 71.54 0 0 0 3.6 -14.77 116.36 116.36 0 0 1 13.36 3.474 35.104 35.104 0 0 1 -16.964 11.294Zm18.388 -13.118a77.112 77.112 0 0 0 -14.478 -3.862 103.6 103.6 0 0 0 0.85 -16.906 194.368 194.368 0 0 0 21.45 -3.232 42 42 0 0 1 -7.824 24.002Z" fill="#016496" stroke-width="1"></path><path d="M276.46 336.566a102.226 102.226 0 0 1 -19.238 -3.424c19.732 -107.892 22.906 -125.466 28.324 -146.236 7.53 0.438 14.964 1.8 22.494 2.26 -0.038 0.264 -18.02 121.062 -18.072 121.4 -0.116 0.756 1.046 1.094 1.166 0.316 8.382 -54.574 18.336 -122 18.364 -122.2a0.702 0.702 0 0 0 -0.68 -0.874c-7.97 -0.4 -15.846 -1.8 -23.8 -2.332a0.68 0.68 0 0 0 -0.656 0.51c-2.066 7.848 -3.84 15.764 -5.514 23.684 -2.336 11.052 -22.858 123.23 -22.932 123.74a0.664 0.664 0 0 0 0.438 0.778 110.284 110.284 0 0 0 20.114 3.474c0.732 0.062 0.732 -1.04 -0.008 -1.096Z" fill="#191919" stroke-width="1"></path><path d="M295.676 200.656a2.236 2.236 0 0 0 0 -3.11 2.216 2.216 0 1 0 0 3.11Z" fill="#191919" stroke-width="1"></path><path d="M339.328 166.21a0.696 0.696 0 0 0 -0.68 -0.68c-8.724 -0.096 -17.368 1.628 -26.09 1.53a0.682 0.682 0 0 0 -0.68 0.706c10.134 151 9.644 142.728 9.644 142.93 0.048 0.778 1.266 0.778 1.214 0 -1 -14.958 3.6 53.366 -9.424 -142.178 8.282 0.072 16.468 -1.628 24.752 -1.554 1.19 8.818 2.066 17.708 2.94 26.55 1.264 12.8 12.266 140.186 12.292 140.55a97.482 97.482 0 0 1 -18.268 2.188 0.558 0.558 0 0 0 0 1.116 106.486 106.486 0 0 0 19.118 -2.234 0.622 0.622 0 0 0 0.46 -0.6c-0.02 -0.218 -14.824 -164.696 -15.278 -168.324Z" fill="#191919" stroke-width="1"></path><path d="M327.814 181.15c1.438 -1.1 0.846 -4.6 -1.968 -3.886a2.184 2.184 0 0 0 -1.312 3.2 2.33 2.33 0 0 0 3.28 0.686Z" fill="#191919" stroke-width="1"></path><path d="M301.238 310.4c-22.388 0.752 -25.46 8.862 -19.044 11.4 6.164 2.432 25.74 3.564 35.368 -0.2 2.378 -0.93 7.876 -3.6 5.466 -7a4.378 4.378 0 0 0 -2.576 -1.6c-4.292 -2.456 -14.268 -2.762 -19.214 -2.6Z" fill="#191919" stroke-width="1"></path><path d="M325.166 319a0.618 0.618 0 0 0 -0.874 0.874c3.586 3.726 7.6 7.506 8.16 12.972a9.086 9.086 0 0 1 -6.852 10.354c-0.752 -15.414 -1.588 -21.254 -1.724 -22.518 -0.068 -0.632 -1.064 -0.632 -1 0 0.18 1.65 0.156 3.4 0.292 5.078 0.2 2.536 1.09 14.428 1.214 17.78 -9.82 2.352 -21.584 -2.24 -29.878 -8.258a73.814 73.814 0 0 1 -12.17 -11.976c-0.316 -0.364 -0.87 0.094 -0.632 0.486 7.742 12.8 27.226 24.308 42.728 21.012 0.2 5.84 -0.218 8.776 -5.66 10.93 -7.496 2.968 -17.7 2.32 -25.6 1.482 -3.912 -0.414 -8.534 -1.112 -11.102 -4.47a11.466 11.466 0 0 1 -1.6 -7.068c-0.05 -2.574 -0.244 -18.34 -0.268 -23.66a0.486 0.486 0 0 0 -0.972 0c-0.24 7.526 -0.142 15.02 -0.024 22.688a20.68 20.68 0 0 0 0.68 6.6 11.126 11.126 0 0 0 8.356 6.412 72.4 72.4 0 0 0 27.376 0.34c3.4 -0.8 7.294 -2.158 9.086 -5.4 1.42 -2.56 1 -5.724 1 -8.186a10.148 10.148 0 0 0 8.162 -10.2c0.086 -6.11 -4.234 -11.472 -8.698 -15.272Z" fill="#191919" stroke-width="1"></path><path d="M151.8 110.34c-0.732 -1.82 -2.354 -4.17 -4.664 -3.74 -2.524 0.468 -2.6 3.95 -5.028 4.444a23.856 23.856 0 0 1 -4.25 -0.242 15.518 15.518 0 0 0 -4.738 1.142c-9.4 3.326 -13.688 7.562 -11.174 22.154a0.624 0.624 0 0 0 1.2 0c0.68 -4.49 1.362 -9.72 4.932 -13.022 0.316 -0.29 0.734 -0.836 1.264 -0.534 0.246 0.142 0.49 0.968 0.63 1.214a21.614 21.614 0 0 0 2.94 4.082c0.364 0.388 0.898 -0.17 0.558 -0.558a24.298 24.298 0 0 1 -3.4 -5.66c-1.19 -1.386 -2.888 0.488 -3.668 1.384a18.366 18.366 0 0 0 -3.838 8.89c-1.068 -10 2.524 -13.734 9.96 -16.518 4.4 -1.652 4.8 -1.564 7.942 -1.214 5.08 0.566 4.648 -4.426 7.142 -4.446 2.35 -0.018 4.028 4.856 3.984 6.972 -0.044 2.2 -1.862 1.716 -3.06 0.754 -1.462 -1.176 -1.8 -1.65 -5.078 0.144 -4.08 2.232 -3.13 5.108 -5.586 7.75 -0.538 0.58 0.32 1.438 0.874 0.85 2.906 -3.088 1.43 -6.188 6.874 -8.234 1.648 -0.62 1.876 0.51 3.2 1.166a3.162 3.162 0 0 0 2.8 0.146c2.306 -1.192 0.906 -5.124 0.184 -6.924Z" fill="#191919" stroke-width="1"></path><path d="M106.226 267.846a8.914 8.914 0 0 0 7.166 7.288 71.236 71.236 0 0 0 -0.728 -21.572c-5.264 1.774 -7.14 9.28 -6.438 14.284Z" fill="#191919" stroke-width="1"></path><path d="M113.076 321.554c2.944 -2.574 1.046 -10.6 0.244 -14.428a26.174 26.174 0 0 1 -2.94 1.19c-13 5.102 -26.756 5.122 -31.4 3.376 0.098 3.012 0.2 6 0.462 9.012a9.316 9.316 0 0 0 0.874 4 0.366 0.366 0 0 0 -0.51 0.244 130.294 130.294 0 0 0 -3.278 14.89 0.45 0.45 0 0 0 0.412 0.558c3.714 0.278 7.434 0.486 11.126 0.754 0.438 0 0.4 -0.306 1.238 -2.21 0.918 1.966 1.096 2.6 1.556 2.6 6.7 -0.496 12.54 -1.352 25.068 -2.672 3.32 -0.35 8.242 -0.522 9.426 -3.984 1.384 -4.068 -3.614 -12.518 -12.278 -13.33Zm8.162 15.426c-2.548 0.756 -21.354 2.4 -30.122 3.668 0 0 -0.956 -2.012 -1.432 -3.036a0.444 0.444 0 0 0 -0.754 0c-0.246 0.6 -0.656 2.33 -1.238 2.6 -0.036 0.018 -10 -0.666 -10.2 -0.68a143.04 143.04 0 0 1 3.108 -14.478c1.8 2.356 5.248 1.658 7.774 1.36 9.854 -1.154 21.294 -3.42 22.688 -3.838a14.138 14.138 0 0 1 10.712 4.664 10.954 10.954 0 0 1 2.77 5.66c0.238 2.234 -1.36 3.5 -3.306 4.08Z" fill="#191919" stroke-width="1"></path><path d="M86.452 208.914a40.256 40.256 0 0 0 -1.36 9.888c0.494 7.328 8.736 7.69 11.564 0.752 1.718 -4.218 0.724 -9.232 1.19 -9.814 -3.79 -0.17 -7.58 -0.582 -11.394 -0.826Z" fill="#191919" stroke-width="1"></path><path d="M66.2 207.264a40.036 40.036 0 0 0 -1.36 9.886c0.492 7.328 8.734 7.69 11.562 0.752 1.72 -4.218 0.724 -9.232 1.19 -9.814 -3.77 -0.144 -7.592 -0.582 -11.392 -0.824Z" fill="#191919" stroke-width="1"></path><path d="M150.728 144.178a7.044 7.044 0 0 0 -5.2 0.51 5.288 5.288 0 0 0 -2.4 3.134 20.174 20.174 0 0 0 -0.582 4.956 10.442 10.442 0 0 1 -2.064 5.2 2.146 2.146 0 0 1 -0.244 -0.17 0.762 0.762 0 0 0 -0.922 0.122c-4.52 4.66 -10.8 13.438 -12.6 19.19a0.63 0.63 0 0 0 1.142 0.486c3.166 -5.158 4.416 -9.746 12.146 -18.17 2.476 1.578 4.906 3.278 7.506 4.664 -2.94 9.2 -7.872 17.586 -12.268 26.136 -1.748 3.4 -4.058 7.358 -8.016 8.43 -9.452 2.558 -15.63 -12.078 -18.388 -21.474a0.544 0.544 0 0 0 -1.046 0.292 47.444 47.444 0 0 0 2.608 8.428 81.872 81.872 0 0 1 -5.296 15.182c-2.088 -2.308 -5.66 -3.35 -8.452 -4.348q-2.334 -0.838 -4.738 -1.458a145.178 145.178 0 0 1 -3.314 -16.542 204.338 204.338 0 0 1 15.498 -22.834c0.874 -0.6 1.724 -1.218 2.648 -1.75a8.2 8.2 0 0 1 7.288 -0.68c3.886 1.578 5.78 5.976 7.044 9.692 1.86 5.462 4.138 14.424 5.4 20.26 0.126 0.582 1.14 0.46 1.07 -0.146a155.77 155.77 0 0 0 -5.028 -19.8 20.648 20.648 0 0 0 -5.442 -9.6 9.628 9.628 0 0 0 -11.902 -0.218 1.032 1.032 0 0 0 -1.676 -0.412 29.646 29.646 0 0 0 -2.722 3.182 11.876 11.876 0 0 1 -10.372 -0.2 4.8 4.8 0 0 0 0.826 -3.812 14.232 14.232 0 0 0 2.016 -0.2c5.414 -0.6 7.126 -0.412 8.114 -1.678 0.83 -1.064 0.292 -2.236 -0.34 -3.23a4.176 4.176 0 0 1 -0.8 -2 46.372 46.372 0 0 1 -12.716 1.784c0.372 1.496 1.27 4.306 2.626 5.056a5.036 5.036 0 0 1 -0.754 3.304 7.462 7.462 0 0 0 -2.332 -1.87c-0.024 -0.56 -0.044 -1.142 -0.074 -1.702 -0.042 -0.8 -1.342 -1.09 -1.482 -0.2 -0.064 0.414 -0.12 0.826 -0.168 1.264 -5.314 -1.356 -9.878 1.976 -13.702 5.926 -5.05 5.22 -13.682 15.088 -12.632 22.252a6.186 6.186 0 0 0 6.56 5.562 46.722 46.722 0 0 0 -1.07 13.6c-11.012 17.4 -10.086 33.03 -10.93 45.182 -1.452 20.91 -9.284 38.568 -6.486 61.118 11.098 3.316 24.786 2.838 28.13 3.74a0.658 0.658 0 0 1 0 1.264 24.126 24.126 0 0 1 -7.896 -0.098 75.274 75.274 0 0 1 -20.04 -3.448c0.244 1.65 0.514 3.302 0.85 4.93 0.784 3.788 1.7 8.162 4.932 10.518 -1.652 5.15 -2.894 10.456 -4.494 15.644a0.464 0.464 0 0 0 0.462 0.582c3.718 0.086 7.454 0.4 11.174 0.486a0.436 0.436 0 0 0 0.436 -0.34 15.6 15.6 0 0 1 0.462 -1.6c0.146 0.6 0.298 1.212 0.462 1.846a0.446 0.446 0 0 0 0.436 0.34c7.17 -0.706 9.474 -0.33 11.83 -0.924 0.464 -0.116 0.318 -0.758 -0.12 -0.8a34.058 34.058 0 0 0 -5.854 0.366c-1.848 0.144 -3.668 0.266 -5.514 0.412 -0.244 -0.972 -0.468 -1.924 -0.706 -2.89a0.464 0.464 0 0 0 -0.85 -0.098 17.938 17.938 0 0 0 -0.948 2.8l-10.2 -0.438c1.41 -4.93 2.916 -9.862 4.154 -14.866a18.6 18.6 0 0 0 8.38 1.652c3.256 0.15 6.534 0.352 9.79 0.462a6.162 6.162 0 0 0 6.56 -3.474c-3.102 -23.718 1.92 -42.03 1.092 -55.6 -0.664 -10.914 -5.014 -19.474 -4.154 -37.384 0.048 -1 1.6 -1 1.554 0 -1.014 19.644 3.762 26.8 4.058 39.522 0.244 10.514 -2.85 24.874 -2.114 41.15a39.182 39.182 0 0 0 8.916 0.462 67.574 67.574 0 0 0 25.068 -5.684c-1.664 -9.738 -0.542 -18.962 0.292 -28.226a10.922 10.922 0 0 1 -8.574 -8.478 19 19 0 0 1 1.7 -10.568 9.94 9.94 0 0 1 6.024 -5.442c-1.614 -6.556 -4.4 -13.2 -5.126 -19.6 -1.018 -8.888 2.72 -22.446 -1 -29.878a54.978 54.978 0 0 0 5 -14.868c7 15.2 17.4 15.528 23.442 6.074 0.934 -1.462 6.86 -12.89 7.214 -13.58a110.236 110.236 0 0 0 7.11 -16.61 0.8 0.8 0 0 0 -0.34 -0.852c-2.514 -1.336 -4.908 -2.938 -7.288 -4.492 3.974 -3.046 1.678 -9.624 4.178 -12.074 1.338 -1.31 3.442 -0.948 5.102 -1.4a0.492 0.492 0 0 0 0.076 -0.956Zm-51.4 14.162a187.314 187.314 0 0 0 -11.248 16.64 170.33 170.33 0 0 1 -0.972 -20.09c1.108 0.588 4.834 5.498 12.22 3.45Zm-25.6 9.96c0.118 -0.414 -0.458 -0.8 -0.754 -0.438a67.462 67.462 0 0 0 -7.068 17.66 4.836 4.836 0 0 1 -3.79 -1.068 5.83 5.83 0 0 1 -1.942 -4.542c0 -6.212 7.058 -14.426 11.27 -18.948 3.86 -4.144 8.232 -8.186 13.8 -6.85a131.462 131.462 0 0 0 0.924 24.096q-4.518 7.8 -8.332 15.96a28.292 28.292 0 0 0 -12.316 4.688c-0.442 -15.64 7.588 -28.398 8.204 -30.558Zm3.522 51.28c-3.632 6.762 -12.294 6.278 -13.7 -1.07 -0.6 -3.138 0.298 -6.4 1.336 -12.2a0.732 0.732 0 0 1 0.704 -0.534 103.534 103.534 0 0 1 12.656 1.4c0.23 0.046 0.678 1.274 0.68 1.386a22.016 22.016 0 0 1 -1.68 11.018Zm3.256 -25.628c1.696 -3.484 3.156 -6.6 6.17 -11.928 0.68 4.252 1.53 8.502 2.6 12.68a36.076 36.076 0 0 0 -8.774 -0.752Zm17 27.278c-3.568 6.712 -12.284 6.338 -13.7 -1.068 -0.6 -3.142 0.3 -6.4 1.336 -12.2a0.732 0.732 0 0 1 0.704 -0.534 102.8 102.8 0 0 1 12.656 1.4c0.23 0.046 0.678 1.276 0.68 1.384a22.368 22.368 0 0 1 -1.676 11.018Z" fill="#191919" stroke-width="1"></path><path d="M85.918 124.648a15.8 15.8 0 0 0 -4.318 8.308 18.148 18.148 0 0 0 2.284 13.286c0.514 0.898 2.77 0.826 3.692 0.876 -2.848 -6.9 -5.35 -15.718 -1.658 -22.47Z" fill="#016496" stroke-width="1"></path><path d="M93.254 128.242a11.37 11.37 0 0 1 6.972 -7.384 14.77 14.77 0 0 0 -11.49 1.652c-5.8 7.19 -2.94 16.932 0.34 24.632 1.894 -0.07 4.616 -0.496 5.15 -0.56 -1.312 -5.804 -2.896 -12.51 -0.972 -18.34Z" fill="#016496" stroke-width="1"></path><path d="M116.696 135.2a0.784 0.784 0 0 0 -0.73 -0.558 6.932 6.932 0 0 0 -2.914 0.534c-2.234 -5.4 -5.49 -11.126 -10.81 -13.58 -4.2 0.4 -7.232 4.448 -8.088 8.528 -1.11 5.272 0.314 11.076 1.48 16.25a48.484 48.484 0 0 0 19.628 -8.258 2.834 2.834 0 0 0 1.434 -2.916Z" fill="#016496" stroke-width="1"></path><path d="M148.348 142.4c-3.522 -5.926 -7 -11.854 -10.81 -17.586a0.698 0.698 0 0 0 -0.924 -0.244c-2.086 1.028 -2.722 1.082 -2.6 1.702a0.4 0.4 0 0 0 -0.098 0.486c2.988 6.158 5.976 12.314 9.158 18.364a7.738 7.738 0 0 1 5.274 -2.722Z" fill="#191919" stroke-width="1"></path><path d="M159.74 162.4a31.706 31.706 0 0 0 -1.7 -3.4 24.632 24.632 0 0 1 -2.55 2.574c-2.14 1.938 -2.358 1.6 -2.358 1.822 0.972 1.702 2.362 5.164 4.956 4.422 2.336 -0.672 2.43 -3.552 1.652 -5.418Z" fill="#191919" stroke-width="1"></path><path d="M130.64 126.494c-0.344 14.412 0.424 24.778 0.704 37.944a78.862 78.862 0 0 1 6.632 -8.162 3.06 3.06 0 0 1 1.7 -0.924 7.36 7.36 0 0 0 0.946 -4.032 12.73 12.73 0 0 1 0.852 -4.858c-13.428 -25.462 -7.752 -16.444 -10.834 -19.968Z" fill="#016496" stroke-width="1"></path><path d="M269.27 120.712a87.564 87.564 0 0 0 -0.874 -12.242c-0.514 -3.2 -1.434 -6.722 -5.052 -7.506 -1.08 -0.234 -93.39 -1.8 -119 -0.56 -5.104 0.25 -9.93 0.22 -11.854 4.932a17.976 17.976 0 0 0 -1.022 4.616c3.588 -1.2 4.854 -1.982 8.552 -1.4a6.284 6.284 0 0 0 1.652 0.122c0.674 -0.168 1.882 -4.542 6.024 -4.542 2.648 0 5.036 1.964 6.388 5.32 2.564 6.358 0.702 8.958 -1.312 10.032a5.812 5.812 0 0 1 -6.486 -1.094c-3.876 1.576 -2.526 3.8 -5.416 7.166 2.964 4.712 5.442 9.8 8.356 14.648a4.988 4.988 0 0 1 6.146 4.252 4.856 4.856 0 0 1 1.8 3.886 4.844 4.844 0 0 1 1.336 3.28 5.156 5.156 0 0 1 0.242 4.76l0.972 1.726c0.752 1.36 1.334 1.772 1.822 2.914 1.952 4.572 -0.654 8.89 -4.566 8.89 -3.304 0 -4.98 -3.158 -6 -5.052 -0.024 -0.072 -0.072 -0.122 -0.096 -0.2 -4.956 15.6 -7.694 18.612 -11.296 26A30.358 30.358 0 0 1 134 199.15a8.09 8.09 0 0 0 4.858 1.7c1.054 0.058 44.416 -0.096 54.292 -0.122 1.238 -1 2.502 -1.966 3.764 -2.914 -2.308 -2.576 -4.768 -5.362 -7.578 -8.6a3.14 3.14 0 0 1 2.088 -5.2c15.056 -1.458 32.38 -1.556 49.118 -3.11a3.126 3.126 0 0 1 3.328 3.328c-0.482 5.418 -1.044 10.86 -1.6 16.324 1.142 0 12.462 -0.036 16.98 -0.048 3.256 0 6.952 0.124 8.648 -3.23 1.584 -3.132 1.17 -7.166 1.264 -10.544 1.2 -43.488 0.472 -46.696 0.108 -66.022Zm-109.092 -9.546a1.848 1.848 0 0 1 -2.964 -1.846 1.89 1.89 0 0 1 3.328 -0.874 2.016 2.016 0 0 1 -0.364 2.72Zm76.736 -4.252a1.928 1.928 0 0 1 2.672 0.292 2 2 0 0 1 -0.364 2.696 1.786 1.786 0 0 1 -2.72 -0.486 1.942 1.942 0 0 1 0.412 -2.502ZM184.6 149.6c-1.626 3.122 -3.436 6.154 -5.344 9.108a0.966 0.966 0 0 1 -1.652 0c-0.928 -1.868 -1.846 -3.74 -2.768 -5.586 -0.632 1.456 -1.244 2.936 -1.872 4.4 -0.488 1.14 -1.38 3.08 -2.914 1.846a9.234 9.234 0 0 1 -1.676 -2.454 42.464 42.464 0 0 1 -3.984 -8.332c-0.316 -0.898 1.114 -1.48 1.506 -0.656 0.8 1.68 1.618 3.382 2.502 5.03 0.36 0.67 2.184 3.984 2.526 4.42 0.49 -0.92 0.494 -1.468 2.988 -7.068a0.97 0.97 0 0 1 1.676 0c0.95 2 1.944 3.984 2.916 5.976 1.578 -2.502 3.06 -5.03 4.444 -7.628 0.574 -1.102 2.21 -0.15 1.652 0.944Zm23.4 -0.098c-1.67 3.1 -3.436 6.154 -5.344 9.11a0.966 0.966 0 0 1 -1.652 0c-0.928 -1.868 -1.846 -3.742 -2.77 -5.588 -0.632 1.458 -1.244 2.938 -1.87 4.4 -0.49 1.142 -1.382 3.082 -2.916 1.848a9.4 9.4 0 0 1 -1.676 -2.454 42.572 42.572 0 0 1 -3.984 -8.332c-0.314 -0.9 1.116 -1.48 1.506 -0.656 0.8 1.678 1.62 3.38 2.502 5.028 0.36 0.67 2.186 3.984 2.528 4.422 0.488 -0.922 0.492 -1.47 2.986 -7.07a0.972 0.972 0 0 1 1.678 0c0.95 2 1.942 3.984 2.914 5.976 1.578 -2.502 3.026 -5.048 4.446 -7.628 0.576 -1.084 2.212 -0.132 1.636 0.94Zm22.664 0.024c-1.642 3.114 -3.436 6.154 -5.344 9.11a0.966 0.966 0 0 1 -1.652 0c-0.928 -1.868 -1.846 -3.742 -2.77 -5.588 -0.632 1.458 -1.244 2.938 -1.87 4.4 -0.49 1.14 -1.382 3.08 -2.916 1.846a9.4 9.4 0 0 1 -1.676 -2.454 42.504 42.504 0 0 1 -3.984 -8.332c-0.314 -0.9 1.116 -1.48 1.506 -0.656 0.8 1.678 1.62 3.382 2.502 5.028 0.36 0.67 2.186 3.984 2.528 4.422 0.488 -0.922 0.492 -1.468 2.986 -7.07a0.972 0.972 0 0 1 1.678 0c0.95 2 1.942 3.984 2.914 5.976 1.578 -2.502 3.048 -5.034 4.446 -7.628 0.562 -1.076 2.198 -0.124 1.636 0.942Zm3.57 -3.766a1.43 1.43 0 0 1 1.724 -0.2 1.4 1.4 0 0 1 0.244 2.212 1.344 1.344 0 0 1 -2.138 -0.244 1.626 1.626 0 0 1 0.154 -1.772Zm2.162 11.54a2.1 2.1 0 0 1 -1.846 -0.024 1.2 1.2 0 0 1 -0.534 -1.336 1.888 1.888 0 0 1 1.652 -1.216 1.428 1.428 0 0 1 0.712 2.572Zm4.786 -0.8a18.2 18.2 0 0 1 -2.066 4.566c-0.312 0.416 -1.188 0.366 -1.116 -0.29a20.472 20.472 0 0 1 1.7 -5.174c5.112 -12.972 5.342 -13.568 6.218 -14.868a0.48 0.48 0 0 1 0.874 0.366c-0.288 1.836 -0.488 2.064 -5.626 15.394Zm10.688 -14.016c-0.29 2.666 -4.2 12.2 -5.32 14.818 -0.566 1.332 -1.046 3.52 -2.308 4.324a0.528 0.528 0 0 1 -0.778 -0.316c-0.25 -1.718 0.63 -1.452 5.49 -14.382a32.014 32.014 0 0 1 1.944 -4.688c0.234 -0.44 1.014 -0.296 0.956 0.238Z" fill="#016496" stroke-width="1"></path><path d="M299.586 266.704c-0.21 1.48 0.54 -3.696 -2.064 13.774 6.6 -0.024 20 -0.048 20.088 -0.048 -0.29 -4.6 -0.6 -9.184 -0.898 -13.774q-8.562 0 -17.126 0.048Z" fill="#016496" stroke-width="1"></path><path d="M389.15 103.466c-0.564 -15.45 0.06 -31.116 -3.062 -46.348 -2.546 -12.426 -7.718 -15.45 -18.486 -15.45 -3.546 0 -306.8 -1.17 -316.566 -0.826 -21.172 0.744 -32.746 0.072 -37.118 14.284 -4.4 14.304 -3.972 67.448 -3.814 82.324 0.4 38.088 2.238 123.06 2.6 127.456 1 12.216 7.158 16.14 19.8 16.4 4.518 0.092 9.036 0.122 13.554 0.122 0.682 -4.576 1.6 -9.4 2.502 -13.92 -7.654 0 -16.6 0.4 -20.332 -6.388a21.758 21.758 0 0 1 -2 -9.79c-0.148 -4.13 -1.856 -77.442 -2.26 -110 -0.2 -15.67 -0.384 -57.028 2.868 -72.414 1.8 -8.496 6.244 -11.89 13.772 -13.092 10.566 -1.688 21.944 -1.722 157.652 -2.332 36.438 -0.164 157.094 1.6 160.616 1.774 9.978 0.5 12.304 5.282 14.114 14.89a156.484 156.484 0 0 1 2.094 25.444c0.46 20.066 1.17 40.106 1.142 60.2 -0.022 16.298 -1.656 88.8 -2.308 96.388 -0.68 7.918 -3.358 12.856 -11.246 14.064a81.78 81.78 0 0 1 -12.098 0.366c0.34 3.91 1.094 12.946 1.142 13.772 17.058 0 17.964 0.082 21.28 -0.266 12.148 -1.278 14.4 -9.28 14.818 -21.158 1.754 -48.956 3.118 -106.582 1.336 -155.5Z" fill="#016496" stroke-width="1"></path><path d="M115.578 267.264c-0.114 4.644 -0.94 13.434 -1 13.8 29.564 -0.096 128.892 -0.388 148.98 -0.436 0.122 -0.73 1.822 -10.032 2.502 -13.774 -35.798 0.032 -127.282 0.322 -150.482 0.41Z" fill="#016496" stroke-width="1"></path><path d="M73.506 75.748a10.862 10.862 0 0 0 -17 -8.744 11.778 11.778 0 0 0 -4.154 13.822c-2.09 1.846 -4.126 3.8 -6.17 5.684a6.094 6.094 0 0 0 -2.526 4.324 2.95 2.95 0 0 0 2.476 3.036c1.968 0.218 3.762 -1.584 5.174 -2.696a64.304 64.304 0 0 0 5.88 -5.076 10.89 10.89 0 0 0 16.32 -10.35ZM48.656 91c-0.634 0.458 -1.434 1.2 -2.284 1.094 -1.896 -0.23 -0.618 -2.658 0.122 -3.45 1.144 -1.226 1 -0.922 6.68 -6.2a10.634 10.634 0 0 0 2.502 2.696 70.9 70.9 0 0 1 -7.02 5.86Zm18.656 -9.984a7.16 7.16 0 0 1 -9.134 0.534 6.968 6.968 0 0 1 2.4 -11.538 6.094 6.094 0 0 1 7.85 3.188 6.876 6.876 0 0 1 -1.116 7.82Z" fill="#016496" stroke-width="1"></path></svg>