<svg viewBox="0 0 400 400" xmlns="http://www.w3.org/2000/svg" height="400" width="400" id="Businessman-Giving-A-Keynote-2--Streamline-Brooklyn.svg"><desc>Businessman Giving A Keynote 2 Streamline Illustration: https://streamlinehq.com</desc><path d="M112.31 178.554c-0.084 0.6 0.048 7.03 0.156 7.65 0.226 1.29 0.2 2.034 0.906 2.078 0.6 0.038 0.9 -0.494 1.156 -2.288a60.688 60.688 0 0 0 -0.156 -7.678c-0.25 -1.67 -0.422 -1.984 -0.948 -2 -0.71 -0.036 -0.992 1.38 -1.114 2.238Z" fill="#191919" stroke-width="1"></path><path d="M105.882 176.2a3.4 3.4 0 0 1 2.658 -0.028c4.096 1.032 0.708 -4.11 -3.2 -2.11 -1.356 0.71 -2.34 3.212 0.542 2.138Z" fill="#191919" stroke-width="1"></path><path d="M116.138 175.914c1.066 -0.358 1.932 -1.044 3.2 -0.84 4.68 0.714 1.714 -2.772 -1.558 -2.152 -3.248 0.632 -4.262 4.114 -1.642 2.992Z" fill="#191919" stroke-width="1"></path><path d="M129.738 169.326c2.2 -2.778 3.104 -6.8 0.456 -9.136 0 -0.044 0.038 -0.092 0.038 -0.142 0.742 -5.89 -4.362 -10.64 -9.762 -7.834 -2.422 -4.138 -8.352 -3.508 -11.512 -0.042 -5.26 -3.56 -11.768 2.46 -10.332 8.312a7.116 7.116 0 0 0 -3.268 11.478c-1.086 2.836 -0.508 5.844 1.266 6.8a65.8 65.8 0 0 0 -0.2 8.234c0.116 2.28 0.67 4.144 2.964 4.334 3.172 0.26 5.6 -3.708 3.684 -7.11a4.358 4.358 0 0 0 -4.558 -2.286 20.2 20.2 0 0 0 -0.308 -2.88c2.152 -0.218 4.17 -2.048 4.334 -5.822a9.67 9.67 0 0 0 5.13 -4.924 11.024 11.024 0 0 0 7.52 -2.748 9.2 9.2 0 0 0 7.104 4.84 22.688 22.688 0 0 0 1.4 7.86c0.368 1.012 3.738 0.864 4.356 0.144 -0.024 0.364 -0.138 1.668 -0.138 3.256a4.2 4.2 0 0 0 -5.512 4.616c0.36 2.77 2.296 4.77 4.842 3.918 -0.928 4.034 -0.776 8 -5.2 11.522 -4.954 -5.518 -11.29 2.496 -6.18 3.576 5.412 1.152 14.214 -5.068 13.31 -16.536 1.492 -2.064 0.824 -11 0.238 -12.326a7.708 7.708 0 0 0 0.328 -7.104Zm-31.15 14.148a2.852 2.852 0 0 1 2.582 1.758c1.582 3.164 -2 4.938 -2.316 3.178a22.43 22.43 0 0 1 -0.266 -4.936Zm4.328 -20.494a1.072 1.072 0 0 1 -0.974 1.278 3.4 3.4 0 0 0 -2.812 2.42c-0.662 1.716 -0.276 2.044 -0.938 2.168 -0.778 0.146 -1.036 -1.242 -1.108 -1.76a4.866 4.866 0 0 1 3.546 -4.8 7.36 7.36 0 0 1 0.2 -2.4c0.276 -0.932 1.52 -2.8 2.35 -2.126 0.874 0.708 -0.8 1.466 -0.264 5.22Zm2.358 -7.344a7 7 0 0 0 -1.064 0.692c-0.754 0.672 -2.376 -0.488 0.418 -1.982a0.722 0.722 0 0 1 0.646 1.29Zm22.338 31.4c-0.46 1.144 -1.848 1.52 -2.47 0.516a3.294 3.294 0 0 1 -0.342 -2.972 2.662 2.662 0 0 1 3.078 -1.2 19.782 19.782 0 0 1 -0.266 3.666Z" fill="#191919" stroke-width="1"></path><path d="M117.582 207.952a32.374 32.374 0 0 0 -0.114 5.176c0.85 3.2 2.2 3.138 2.2 -2.484 0.004 -6.286 -1.712 -4.872 -2.086 -2.692Z" fill="#191919" stroke-width="1"></path><path d="M113.214 204.928c-0.086 -0.902 -1.91 -1 -2.47 -1.146 -1.106 -0.252 -2.676 -0.412 -4.71 -3.702a32.48 32.48 0 0 1 -2.774 -7.428 0.65 0.65 0 1 0 -1.292 0.15 17.436 17.436 0 0 0 0.266 3.614 14.122 14.122 0 0 0 5.662 8.772c0 7.23 0.214 7.566 0.302 9.842a0.724 0.724 0 0 0 1.444 0.08 44.156 44.156 0 0 0 0.464 -9.182c1.424 0.316 3.2 -0.03 3.108 -1Z" fill="#191919" stroke-width="1"></path><path d="M106.638 182.242a1.52 2.28 0 1 0 3.04 0 1.52 2.28 0 1 0 -3.04 0Z" fill="#191919" stroke-width="1"></path><path d="M117.354 182.242a1.52 2.28 0 1 0 3.04 0 1.52 2.28 0 1 0 -3.04 0Z" fill="#191919" stroke-width="1"></path><path d="M10.186 224.612c3.922 5.248 9.704 6.728 14.474 11.298a17.99 17.99 0 0 1 4.18 6.02 0.728 0.728 0 0 0 1.4 -0.4c-1.544 -7.4 -8.074 -10.294 -14.74 -14.714 -0.562 -0.372 -3.53 -2.376 -4.368 -3.114 -0.554 -0.646 -1.556 0.298 -0.946 0.91Z" fill="#191919" stroke-width="1"></path><path d="M16.758 223.262a25.674 25.674 0 0 0 7.066 4.906c1.476 0.538 2.108 0.766 2.432 0.168 0.662 -1.226 -2.356 -2 -8.054 -6.6 -2.976 -2.39 -3.342 -0.634 -1.444 1.526Z" fill="#191919" stroke-width="1"></path><path d="M51.86 242.4a15.938 15.938 0 0 0 -7.844 -12.78c-1.574 -3.426 -2.8 -6.082 -3.248 -7.132 -1.518 -3.58 -2.956 -2.736 -2.166 0.2a29.47 29.47 0 0 0 1.918 4.852c-3.828 -2 -8.986 -3.87 -12.174 -5.622 -1.668 -0.918 -4.11 -2.586 -7.372 -4.4a0.662 0.662 0 0 0 -0.72 1.11c1.272 0.94 3.078 2.51 5.128 3.972 7 4.916 17.974 6.146 23.06 14.7 2.478 4.312 1.526 6.086 2.81 5.902a0.686 0.686 0 0 0 0.608 -0.802Z" fill="#191919" stroke-width="1"></path><path d="M239.946 180.8c0 -3.914 0.67 -7.738 4 -9.842 4.954 -3.14 12.748 -0.54 12.118 5.8a0.722 0.722 0 0 1 -1.444 -0.026c-0.29 -4.424 -5.862 -6.172 -9.498 -3.884 -2.664 1.678 -3.038 5.272 -3.038 8.4 0 0.698 -0.182 0.662 -4.102 3.636 -0.638 0.622 -1.582 -0.312 -0.95 -0.928a27.616 27.616 0 0 1 2.914 -3.156Z" fill="#191919" stroke-width="1"></path><path d="M262.018 187.168c0.526 -0.576 -0.526 -1.818 -1.026 -2.35a22.092 22.092 0 0 0 -6.382 -4.298c-0.458 -0.16 -2.26 -0.702 -2.508 0.026 -0.396 0.878 9.224 7.286 9.916 6.622Z" fill="#191919" stroke-width="1"></path><path d="M259.7 193.08c0.538 -0.584 -0.546 -1.818 -1.024 -2.334a22.926 22.926 0 0 0 -6.232 -4.164c-0.464 -0.2 -2.154 -0.694 -2.468 0 -0.284 0.618 8.736 7.436 9.724 6.498Z" fill="#191919" stroke-width="1"></path><path d="M257.422 197.888c0.45 -0.626 -0.73 -1.762 -1.254 -2.22 -1.386 -1.2 -8.464 -5.2 -9.042 -3.486 -0.526 1.152 9.526 6.618 10.296 5.706Z" fill="#191919" stroke-width="1"></path><path d="M249.558 200.786c1.91 0.944 4.07 2.542 4.71 1.638 0.45 -0.634 -0.756 -1.77 -1.102 -2.058a19.938 19.938 0 0 0 -5.766 -2.846c-0.502 -0.09 -2.104 -0.262 -2.242 0.37 -0.344 1.034 2.456 1.936 4.4 2.896Z" fill="#191919" stroke-width="1"></path><path d="M257.422 172.298c6.028 -8.322 14.464 -26.422 18.31 -36.03a0.728 0.728 0 0 0 -1.33 -0.6c-7.932 15.386 -4.362 8.842 -8.964 18.028 -5.426 10.826 -1.23 2.126 -9.156 17.928 -0.454 0.762 0.774 1.432 1.14 0.674Z" fill="#191919" stroke-width="1"></path><path d="M28.118 245.952c-0.266 3.6 -0.2 2.152 -0.38 4.178a0.666 0.666 0 0 1 -1.33 -0.034c-0.316 -5.43 -0.458 -5.512 0 -5.978 0.934 -0.8 2.748 0.094 24.388 0.568 4 0.088 3.476 -0.534 2.964 5.74a0.722 0.722 0 0 1 -1.444 -0.036l-0.152 -3.58c-6.408 0.206 -18.748 -0.564 -24.046 -0.858Z" fill="#191919" stroke-width="1"></path><path d="M234.286 187.212c-0.22 0.178 -2.218 1.702 -3.2 2.642a0.658 0.658 0 0 1 -0.988 -0.872 25 25 0 0 1 3.8 -4.2 1.072 1.072 0 0 1 0.874 -0.234c0.712 0.128 0.48 0.246 3.266 4.612 2.61 4.088 6.138 9.228 8.244 13a1.128 1.128 0 0 1 -0.19 1.324l-3.912 3.6c-0.652 0.706 -1.72 -0.338 -1.026 -1 0.166 -0.2 2.684 -3.318 2.848 -3.526 -3.268 -5.33 -5.66 -8.534 -9.716 -15.346Z" fill="#191919" stroke-width="1"></path><path d="M66.22 296.448c-10.682 10 -27.466 17.454 -38.028 7.15a26.588 26.588 0 0 1 -5.28 -7.872c-6.112 -12.938 -4.236 -28.926 -1.178 -42.866a1.132 1.132 0 0 1 1.064 -0.878c11.324 -0.2 22.128 0.8 33.28 0.89a1.022 1.022 0 0 1 1.024 1.094c-0.374 9.664 -0.212 19.678 -1.062 29.56a0.724 0.724 0 0 1 -1.444 -0.088c0.636 -8.658 0.22 -19.286 0.38 -28.45 -10.354 -0.098 -21.02 -0.938 -31.228 -0.8 -3.054 14.644 -4.694 31.89 3.306 44.476a15.668 15.668 0 0 0 15.042 7.644c8.648 -0.636 19.664 -7.68 24.656 -13.21a0.954 0.954 0 0 1 1.672 0.742c-0.924 5.436 -1.086 10.138 -1.786 17.132a0.648 0.648 0 1 1 -1.292 -0.106c0.478 -5.936 0.312 -8.696 0.874 -14.418Z" fill="#191919" stroke-width="1"></path><path d="M95.776 219.876a53.8 53.8 0 0 0 -31.226 16.264c-5.724 6.036 -5.53 8.224 -6.648 7.528a0.672 0.672 0 0 1 -0.23 -0.908 52.636 52.636 0 0 1 39.054 -25.212 1.12 1.12 0 0 1 1.216 1.054c0.744 33.34 3.506 58.654 4.4 91.084a0.722 0.722 0 0 1 -1.444 0.066c-2.348 -29.89 -3.74 -59.978 -5.122 -89.876Z" fill="#191919" stroke-width="1"></path><path d="M90.496 256.61c-4.154 1.112 -7.78 2.16 -11.814 2.978a1.096 1.096 0 0 1 -1.292 -1.4c3.12 -10.188 5.214 -19.186 9.876 -32.622a0.662 0.662 0 0 1 1.254 0.424c-2.692 8.472 -4.364 16.8 -8.472 31.034 12.704 -3 13.618 -4.2 14.436 -2.95a1.16 1.16 0 0 1 -0.076 1.3c-3.774 4.658 -7.038 8.242 -11.244 12.568 5.876 13.936 9.16 23.678 13.866 35.664a0.74 0.74 0 0 1 -0.38 0.94 0.73 0.73 0 0 1 -0.95 -0.4c-7.316 -17.326 -9.43 -23.298 -14.892 -36.022 -0.51 -1.396 0.778 -0.996 9.688 -11.514Z" fill="#191919" stroke-width="1"></path><path d="M127.764 218.78a41.348 41.348 0 0 0 -4.256 -3.43 1.062 1.062 0 0 0 -1.14 0c-3.684 2.302 -6.086 4.728 -9.42 6.914 -2.688 -2.384 -5.16 -4.082 -7.522 -5.938a1.036 1.036 0 0 0 -1.102 -0.124c-1.706 0.902 -2.578 1.288 -4.558 2.536a0.66 0.66 0 0 0 0.6 1.174c1.382 -0.574 3.292 -1.172 4.218 -1.564 2.448 1.952 5.024 3.87 7.182 5.848 -3.212 3.576 -5.21 5.38 -7.904 8.97 -1.04 -1.836 0.174 0.134 -2.698 -4.684a0.664 0.664 0 0 0 -1.176 0.62l2.772 6.506a1.058 1.058 0 0 0 0.836 0.614c1.064 0.096 0.632 -0.498 4.33 -4.578 1.558 -1.75 3.2 -3.458 4.75 -5.158 1.52 1.444 3.038 2.944 4.482 4.48 5.26 5.448 5 6.136 6.04 5.924a1.11 1.11 0 0 0 0.836 -0.736c1.156 -3.702 2.328 -5.582 3.2 -9.34a0.714 0.714 0 0 0 -0.494 -0.89 0.754 0.754 0 0 0 -0.912 0.504c-0.692 2.222 -1.92 4.258 -3.152 7.152 -0.126 0.4 -2.304 -3 -8.952 -9.166 3.2 -2 6.042 -4.778 9.254 -6.932 1.09 0.626 3.284 2.026 3.914 2.45a0.724 0.724 0 0 0 0.872 -1.152Z" fill="#191919" stroke-width="1"></path><path d="M132.892 218.746c-1.69 28.328 -0.836 59.878 -0.836 91.136a0.722 0.722 0 0 1 -1.444 0c-0.186 -31.11 -1.778 -59.952 0.19 -92.244a1.04 1.04 0 0 1 0.988 -1.022c11.164 -0.98 21.018 8.296 48.2 0.262a153.626 153.626 0 0 0 40.65 -20.442c7 -5.388 6.634 -7.166 7.978 -7.046 1.478 0.12 11.6 19.136 14.36 25.584a1.072 1.072 0 0 1 -0.114 1.05c-10.9 15.4 -26.272 25.942 -42.966 34.73 -9.634 5.07 -20.246 9.54 -31.076 9.978 0.156 18.768 -0.434 30.29 -0.494 48.142a0.666 0.666 0 0 1 -1.33 0c-0.086 -17.338 0.706 -27.6 -0.19 -49.114a1 1 0 0 1 0.988 -1.03 49.66 49.66 0 0 0 12.84 -2.166c13.032 -3.838 33.7 -15.4 45.778 -25.692a80.788 80.788 0 0 0 14.284 -15.6 213.424 213.424 0 0 0 -12.346 -22.856c-9.508 10.518 -34.334 22.65 -47.716 26.588 -26.49 7.812 -38.518 -0.586 -47.744 -0.258Z" fill="#191919" stroke-width="1"></path><path d="M148.696 253.498c-8.076 -26.752 -9.4 -29.064 -7.978 -29.378a0.682 0.682 0 0 1 0.8 0.51c1.456 6.376 2.964 7.652 9.762 29.878a1.106 1.106 0 0 1 -1.214 1.4c-2.546 -0.322 -5.092 -0.7 -7.636 -1.048 3.032 1.966 5.53 3.664 9.496 5.888a1.104 1.104 0 0 1 0.456 1.468c-5.84 11.582 -8.824 19.416 -16.676 37.906a0.734 0.734 0 0 1 -0.95 0.4 0.744 0.744 0 0 1 -0.38 -0.944c2.552 -6.4 8.014 -22.334 15.538 -37.418 -4.148 -2.384 -8.624 -5.46 -12.612 -8.07a1.106 1.106 0 0 1 0.72 -2.03c3.456 0.386 7.12 0.956 10.674 1.438Z" fill="#191919" stroke-width="1"></path><path d="M290.092 177.322c16.716 -0.058 41.486 0.162 58.162 0.4a0.722 0.722 0 0 1 0 1.444c-16.702 0.238 -42.57 0.43 -59.264 0.4a1.146 1.146 0 0 1 -1.14 -1.118c0 -47.448 0.256 -40.674 0.458 -59.264a0.664 0.664 0 0 1 1.328 0c0.278 17.278 0.456 30.59 0.456 58.138Z" fill="#191919" stroke-width="1"></path><path d="M348.33 134.032a20.364 20.364 0 0 0 -11.738 3.676c-9.32 5.8 -10.114 12.678 -16.83 14.422a13.082 13.082 0 0 1 -9.8 -1.868c-9.422 -5.258 -14.856 2.12 -14.856 4.628h0.04l-0.268 16.716a0.942 0.942 0 0 0 0.95 0.94c14.8 0.1 37.682 0.184 52.426 0.172a1.108 1.108 0 0 0 1.102 -1.112V135.136a1.124 1.124 0 0 0 -1.026 -1.104Z" fill="#f2484e" stroke-width="1"></path><path d="M221.332 253.662a0.706 0.706 0 0 0 -0.722 -0.66 132.468 132.468 0 0 0 -13.676 -0.45 1.126 1.126 0 0 0 -1.122 1.11v4.56a1.126 1.126 0 0 0 1.122 1.116c3.894 0 9.8 -0.05 13.676 -0.11a1.012 1.012 0 0 0 0.988 -1Z" fill="#f2484e" stroke-width="1"></path><path d="M245.644 239.986a0.712 0.712 0 0 0 -0.722 -0.662c-4.296 -0.23 -9.34 -0.424 -13.676 -0.42a1.11 1.11 0 0 0 -1.12 1.082v18.236a1.118 1.118 0 0 0 1.12 1.108h13.676a1.11 1.11 0 0 0 1.102 -1.108c0.022 -5.344 -0.244 -12.822 -0.38 -18.236Z" fill="#f2484e" stroke-width="1"></path><path d="M271.478 223.272a0.716 0.716 0 0 0 -0.722 -0.662c-4.456 -0.076 -8.824 -0.32 -13.676 -0.364a1.022 1.022 0 0 0 -1.026 1.026c-0.034 8.124 -0.114 13.958 -0.114 34.95a1.138 1.138 0 0 0 1.14 1.112h13.676a1.11 1.11 0 0 0 1.102 -1.112c0.016 -10.412 -0.2 -24.582 -0.38 -34.95Z" fill="#f2484e" stroke-width="1"></path><path d="M200.096 265.722c9.934 0.146 56.962 -0.152 74.458 -0.7a0.722 0.722 0 0 0 0 -1.444c-10.416 -0.108 -58.956 0.278 -74.458 0.82a0.662 0.662 0 1 0 0 1.324Z" fill="#191919" stroke-width="1"></path><path d="M291.27 206.692c7.226 0.31 40 0.272 45.246 0.112 6.77 -0.2 7.902 -0.014 7.902 -1s-0.878 -0.8 -7.902 -1c-5.35 -0.162 -38.058 -0.2 -45.246 0.114 -4.472 0.2 -5.242 0.066 -5.242 0.894s0.522 0.678 5.242 0.88Z" fill="#f2484e" stroke-width="1"></path><path d="M189.838 133.752c7.226 0.31 40 0.272 45.246 0.112 6.77 -0.2 7.902 -0.012 7.902 -1s-0.876 -0.8 -7.902 -1c-5.35 -0.162 -38.058 -0.2 -45.246 0.114 -4.472 0.19 -5.242 0.066 -5.242 0.894s0.522 0.678 5.242 0.88Z" fill="#f2484e" stroke-width="1"></path><path d="M289.446 220.368c4.356 0.318 24.08 0.266 27.124 0.112 7.48 -0.37 6.684 -1.918 -1.822 -2.078 -3.126 -0.058 -20.724 -0.158 -25.302 0.176 -1.896 0.134 -3.418 0.024 -3.418 0.894 0 0.832 1.05 0.728 3.418 0.896Z" fill="#f2484e" stroke-width="1"></path><path d="M188.014 147.428c4.358 0.318 24.08 0.268 27.124 0.112 3.964 -0.2 5.054 -0.098 5.054 -1s-1.088 -0.81 -5.054 -1c-3.064 -0.154 -22.776 -0.2 -27.124 0.114 -1.896 0.136 -3.418 0.024 -3.418 0.894 0.004 0.816 1.05 0.71 3.418 0.88Z" fill="#f2484e" stroke-width="1"></path><path d="M188.014 172.5c4.358 0.318 24.08 0.268 27.124 0.114 3.964 -0.2 5.054 -0.098 5.054 -1s-1.088 -0.812 -5.054 -1c-3.064 -0.156 -22.776 -0.2 -27.124 0.112 -1.896 0.136 -3.418 0.024 -3.418 0.896 0.004 0.816 1.05 0.71 3.418 0.878Z" fill="#f2484e" stroke-width="1"></path><path d="M290.13 234.044c7.226 0.31 40 0.272 45.246 0.112 6.77 -0.2 7.902 -0.012 7.902 -1s-0.876 -0.8 -7.902 -1c-5.35 -0.162 -38.058 -0.2 -45.246 0.114 -4.472 0.19 -5.242 0.066 -5.242 0.894s0.522 0.678 5.242 0.88Z" fill="#f2484e" stroke-width="1"></path><path d="M290.13 247.72c7.226 0.31 40 0.272 45.246 0.114 6.77 -0.2 7.902 -0.014 7.902 -1s-0.876 -0.8 -7.902 -1c-5.35 -0.162 -38.058 -0.2 -45.246 0.114 -4.472 0.19 -5.242 0.068 -5.242 0.894s0.522 0.676 5.242 0.878Z" fill="#f2484e" stroke-width="1"></path><path d="M288.382 261.4c4.626 0.308 24.612 0.278 28.076 0.114 3.646 -0.178 5.166 -0.022 5.166 -1 0 -0.908 -0.984 -0.8 -5.166 -1 -3.522 -0.166 -23.476 -0.2 -28.076 0.114 -2.654 0.186 -3.494 0.116 -3.494 0.896 0 0.876 1.342 0.722 3.494 0.876Z" fill="#f2484e" stroke-width="1"></path><path d="M389.928 91.828a2.922 2.922 0 0 0 -2.924 -2.964c-75.834 -0.466 -62.282 -0.4 -237.054 -0.432a3.4 3.4 0 1 0 0 6.8c116.026 -0.046 98 0.226 237.054 -0.376a3.012 3.012 0 0 0 3 -3.02Z" fill="#191919" stroke-width="1"></path><path d="M156.104 98.666c-0.242 13.952 -0.4 83.448 -0.038 109.41a0.722 0.722 0 0 0 1.444 0c0.214 -15.2 0.322 -86.282 -0.076 -109.4a0.666 0.666 0 0 0 -1.33 -0.01Z" fill="#191919" stroke-width="1"></path><path d="M379.482 98.666c-0.548 125.318 0.168 171.382 -0.8 173.772a4.684 4.684 0 0 1 -2.546 2.546c-2.772 1.136 -58.83 0.126 -201.116 0.75a0.724 0.724 0 0 0 0 1.446c67.128 0.294 159.356 0.384 199.332 0.4a6.926 6.926 0 0 0 6.912 -6.932c0 -49.97 -0.168 -119.66 -0.454 -171.974a0.666 0.666 0 0 0 -1.328 -0.008Z" fill="#191919" stroke-width="1"></path><path d="M114.316 192.532c-0.32 0.748 -1.042 0.26 -2.886 0 -0.952 -0.134 -2.052 -0.052 -2.414 0.844 -0.916 2.682 5.4 5.132 8.576 2.694 1.118 -0.86 2.308 -2.81 1.12 -3.6a5.516 5.516 0 0 0 -4.396 0.062Z" fill="#f2484e" stroke-width="1"></path><path d="M113.282 191.41a7.984 7.984 0 0 1 5.516 -1.2c4.766 1.226 2.5 8.376 -3.448 9.04a8.762 8.762 0 0 1 -7.884 -3.086c-1.818 -2.584 -0.278 -7.312 5.816 -4.754Zm1.034 1.122c-0.32 0.748 -1.042 0.26 -2.886 0 -0.952 -0.134 -2.052 -0.052 -2.414 0.844 -0.916 2.682 5.4 5.132 8.576 2.694 1.118 -0.858 2.308 -2.81 1.12 -3.6a5.516 5.516 0 0 0 -4.396 0.062Z" fill="#191919" stroke-width="1"></path><path d="M118.152 239.414a21.216 21.216 0 0 0 1.826 -5.414c-1.87 -2.1 -4.614 -4.958 -7.296 -7.506 -1.986 2.168 -4.862 5.16 -6.588 7.298l3.548 5.372c0 3.126 -4.118 33.16 -5.09 45.658 -0.484 7.108 -0.834 16.354 -1.52 23.354 -0.018 0.18 27.142 0.264 27.124 0.082 -3.866 -24.188 -2.26 -15.858 -12.004 -68.844Z" fill="#f2484e" stroke-width="1"></path></svg>