<svg viewBox="0 0 400 400" xmlns="http://www.w3.org/2000/svg" height="400" width="400" id="No-Files-1--Streamline-Brooklyn.svg"><desc>No Files 1 Streamline Illustration: https://streamlinehq.com</desc><path d="M362.368 340.324c-96.756 0.616 -196.07 -0.158 -293.772 -0.164 -1.528 0 -1.738 2.332 -0.2 2.332 97.714 0 196.162 -0.338 293.772 -0.234 1.296 0.002 1.494 -1.942 0.2 -1.934Z" fill="#1d3547" stroke-width="1"></path><path d="M306.89 83.236c3.07 8.632 5.646 33.62 5.362 42.352a25.678 25.678 0 0 1 -2.646 10.714 0.816 0.816 0 0 0 1.388 0.852c3.674 -5.12 3.2 -13.722 2.868 -19.748 -0.47 -8.476 -2.262 -24.14 -5.06 -33.366 -0.832 -2.738 -1.164 -3.034 -4.058 -3.974 -3.414 -1.112 -11.26 -0.432 -11 2.332 1.03 11.156 -0.12 19.818 -0.85 30.728 -0.058 0.864 1.306 0.898 1.492 0.106a123.546 123.546 0 0 0 1.236 -30.882c3.492 -1.95 10.724 -0.642 11.268 0.886Z" fill="#1d3547" stroke-width="1"></path><path d="M209.77 115.82a4.636 4.636 0 0 0 -3.976 -0.4 17.28 17.28 0 0 0 -8.708 4.93c-1.166 1.376 -0.8 1.642 -0.14 3.172a127.878 127.878 0 0 0 21.264 32.338c3.226 3.652 6.8 7.364 12.136 6.6 5.058 -0.714 15.232 -6.838 25.11 -8.954 0.77 -0.164 0.6 -1.444 -0.186 -1.364 -9.944 1.026 -18.57 7.426 -25.052 8.3 -4.838 0.654 -7.656 -2.66 -10.644 -6 -8.968 -10 -15.224 -20.832 -21.508 -32.548a17.862 17.862 0 0 1 10.2 -4.918c9.758 5.432 16.814 15.876 22.732 22.336 0.542 0.6 1.71 0 1.26 -0.828a13.51 13.51 0 0 0 -0.886 -1.422 87.832 87.832 0 0 1 50.676 -19.818 122.838 122.838 0 0 1 15.772 0.372 0.704 0.704 0 0 0 0.246 -1.386c-8.03 -1.528 -20.472 -0.78 -28.528 0.8 -12.682 2.474 -29.714 9.49 -39.368 18.5 -4.29 -5.22 -14.42 -16.174 -20.4 -19.71Z" fill="#1d3547" stroke-width="1"></path><path d="M296.246 128.142a39.24 39.24 0 0 0 -15.096 -7.31c-0.734 -0.128 -1.168 1 -0.432 1.294a53.866 53.866 0 0 1 13.244 6.622c15.666 10.858 26.322 27.838 34.39 44.788 -8.16 -1.164 -38.2 3.3 -46.77 9.21 -5.504 -7.53 -23.152 -24.212 -32.374 -25.2a0.758 0.758 0 0 0 -0.326 1.48c9.944 3.044 24.618 16.694 31.056 24.89 1.152 1.468 1.9 0.372 7.25 -1.8 7.788 -3.17 33.812 -8.448 42.62 -6.294 1.984 0.484 0.428 -2.942 0 -3.8 -8.242 -16.54 -18.264 -33.022 -33.562 -43.88Z" fill="#1d3547" stroke-width="1"></path><path d="M197.412 118.454a0.906 0.906 0 0 0 0.4 -1.166c-2.042 -3.286 -5 -7.368 -9.268 -7.426 -0.724 0 -1 1.17 -0.222 1.318 6.462 1.236 7.19 8.286 9.09 7.274Z" fill="#1d3547" stroke-width="1"></path><path d="M186.034 108.51a14.672 14.672 0 0 1 18.316 4.908 0.874 0.874 0 0 0 1.572 -0.688c-1.716 -6.936 -14.07 -8.972 -20.306 -5.28 -0.55 0.324 -0.272 1.35 0.418 1.06Z" fill="#1d3547" stroke-width="1"></path><path d="M295.512 78.108a0.758 0.758 0 0 0 0.734 -1.294c-2.96 -2.962 -0.628 -7.276 -1.8 -9.4a0.8 0.8 0 0 0 -1.516 0.22 53.546 53.546 0 0 0 -0.094 6.284 4.718 4.718 0 0 0 2.676 4.19Z" fill="#1d3547" stroke-width="1"></path><path d="M301.096 71.556a15.582 15.582 0 0 0 1.97 -2.612 26.326 26.326 0 0 1 7.24 1.166c1.908 0.582 2.25 -0.734 1.06 -1.34 0.77 -1.504 2.976 -7.39 2.274 -9.128a0.676 0.676 0 0 0 -1.166 -0.14 73.69 73.69 0 0 1 -2.552 8.732 23.506 23.506 0 0 0 -2.332 -0.56c1.534 -2.966 3.87 -11.688 1.384 -10.63 -1.19 0.506 0.412 3.146 -2.982 10.384a14.442 14.442 0 0 0 -2 -0.14 18.76 18.76 0 0 0 1.948 -8.556 0.76 0.76 0 0 0 -1.458 -0.058c-1.066 3.372 -1.2 8.848 -5.338 12.73 -1.208 1.14 0.544 1.634 1.952 0.152Z" fill="#1d3547" stroke-width="1"></path><path d="M306.6 78.818c-0.336 0.746 0.838 1.444 1.272 0.712 1.962 -3.328 6.83 -5.072 8.708 -15.54a0.666 0.666 0 0 0 -1.26 -0.326 52.91 52.91 0 0 1 -3.496 8.416c-1.53 2.53 -4.162 4.384 -5.224 6.738Z" fill="#1d3547" stroke-width="1"></path><path d="M207.916 113.454c2.8 -0.35 12.824 8.358 15.016 11.972 1.9 0.232 8.674 1.284 14.21 -2.752 4.572 -3.332 -3.976 -18.928 -18.186 -19.818 -6.482 -0.4 -11.856 3.754 -12.974 7.286a6.44 6.44 0 0 1 1.934 3.312Z" fill="#1d3547" stroke-width="1"></path><path d="M248.276 122.302c0.478 -0.2 0.944 -1.142 0 -1.166a43.488 43.488 0 0 1 -7.31 -0.898 0.782 0.782 0 0 0 -0.268 1.528 18.552 18.552 0 0 0 7.578 0.536Z" fill="#1d3547" stroke-width="1"></path><path d="M219.678 101.166a7.986 7.986 0 0 1 8.162 -10.318c8.69 0.476 13.472 10.6 28.8 5.422 3.076 -1.04 -0.782 -0.99 -3.906 -2.028 -5.748 -1.912 -12.544 -25.184 -30.554 -22.022 -14 2.456 -17.4 17.754 -9.128 29.6a13.182 13.182 0 0 1 6.626 -0.654Z" fill="#1d3547" stroke-width="1"></path><path d="M381.744 273.886c-3.824 -2.2 -38.576 -27.8 -39.322 -28.374s-0.21 -53.94 -11.506 -67.616c-19.91 -2.214 -42.166 4.664 -48.682 8.72 -11.262 30.4 -16.38 69.318 -17.148 78.6s0.186 51.54 1.166 60.528c3.684 1.166 14.584 1.166 17.672 -0.4 0.444 -3.242 6.366 -57 7.66 -59.524a612.334 612.334 0 0 0 26.474 -61.984 0.584 0.584 0 0 1 1.096 0.4q-5.098 13.77 -10.224 27.536c2.612 7.274 10.584 24.35 15.156 30.648 5.136 7.074 38.8 21.682 49.708 25.81 -0.222 -4.294 3.834 -12.724 7.95 -14.344Z" fill="#1d3547" stroke-width="1"></path><path d="M266.24 328.688a0.71 0.71 0 0 0 -0.432 -1.304c-3.088 0.164 -12.6 4.302 -15.492 6.8 -2.692 2.332 0.058 4.018 2.33 4.102 8 0.302 17.488 0.238 25.542 0 6.064 -0.178 7.646 -0.684 7.486 -4.918a10.722 10.722 0 0 0 -1.714 -5.504c-0.63 -0.838 -1.844 0 -1.528 0.91a15.672 15.672 0 0 1 1.376 5.83c-0.092 1.06 -1.166 1.654 -3.042 1.736 -2.17 0.094 -27.444 0.758 -29.472 0 0.688 -2.568 13.424 -6.674 14.946 -7.652Z" fill="#1d3547" stroke-width="1"></path><path d="M387.712 278.024a5.14 5.14 0 0 0 -5.828 -1.27c-0.688 0.338 -0.354 1.558 0.432 1.328a4.246 4.246 0 0 1 4.57 1.634c3.502 4.728 -1.422 24.364 -2.706 29.912 -0.93 4.022 -3.108 5.622 -4.348 0.362a153.668 153.668 0 0 1 -2.868 -22.4c-0.092 -0.944 -1.586 -0.84 -1.644 0.082 -0.316 5.024 1.4 20.154 3.148 24.55 2.23 5.618 6.25 2.962 7.532 -2.622 1.482 -6.476 7.098 -26.388 1.712 -31.576Z" fill="#1d3547" stroke-width="1"></path><path d="M126.43 266.168c1.654 0 1.444 -2.502 0.07 -2.424a126.226 126.226 0 0 1 -31.8 -2c-18.93 -3.772 -34.554 -16.544 -38.9 -36.144a71.424 71.424 0 0 1 4.36 -41.782C72.144 156.87 96.738 149.6 126.114 150.6c3.078 0.104 3.306 0.6 4.058 -2.89 4.2 -19.534 18.78 -30.556 38.224 -33.016a134.488 134.488 0 0 1 17.768 -0.92c1.164 0 2.04 -2.13 -0.164 -2.2 -6.18 -0.176 -42.632 0 -48.8 0 -11.484 0 -22.954 -1.276 -32.818 5.094 -8.488 5.484 -15.896 17.42 -17.37 27.548 -0.136 0.944 1.508 1.644 1.68 0.582 1.864 -11.512 11.178 -28.844 30.042 -30.694 4.84 -0.476 3.948 -0.304 42.27 -0.304 -15.738 3.894 -29.144 14.55 -33.142 34.566 -19.458 -0.898 -56.622 -2.256 -68.78 -0.654 -32.316 4.276 -55.316 44.15 -47.574 79.182C17.674 254.8 39.6 265 66.696 266c7.32 0.26 52.412 0.168 59.734 0.168Zm-57.45 -2.272c-27.428 -0.756 -49.762 -9.142 -55.304 -38.122 -5.94 -31.056 10.658 -68.64 42.458 -75.238 9.536 -1.978 29.82 -1.108 45.674 -0.71 -18.2 3.228 -32.74 12.33 -41.746 29.038a71.616 71.616 0 0 0 -7.344 42.388c2.96 23.246 19.584 38.016 41.968 42.784 -11.612 -0.012 -22.594 -0.054 -25.706 -0.14Z" fill="#fb0d12" stroke-width="1"></path><path d="M277.722 191.152c-6.264 -14.076 -24.26 -20.588 -40.8 -19.364 0 -2.144 0.29 -8.12 -1.8 -7.74 -1.6 0.29 -0.2 2.33 -0.164 6.738 0.02 2.472 -0.094 3.24 2.472 3 10.374 -0.986 31.13 3.104 38.178 18.314a1.158 1.158 0 0 0 2.114 -0.948Z" fill="#fb0d12" stroke-width="1"></path><path d="M261.494 259.932c-8.094 3.686 -22.91 1.568 -31.044 2.6 -1.072 0.136 -0.816 1.824 0.176 1.83 8.778 0.052 24.2 1 31.872 -2.518 1.26 -0.58 0.256 -2.484 -1.004 -1.912Z" fill="#fb0d12" stroke-width="1"></path><path d="M177.106 184.356c-1.622 -0.026 -5.422 -8.558 -7.52 -10.05s-26.812 -3.148 -28.922 -0.232 -0.468 75.53 -1.446 84.098c-0.934 8.16 -7 11.652 -13.99 11.938 -12.428 0.504 -24.772 0.262 -37.572 0.174 -1.702 -0.012 -1.76 2.2 0 2.332 11.586 0.818 39.158 0.864 49.872 0.688 21.134 -0.348 57.8 0.24 76.8 -1.062a15.062 15.062 0 0 0 14.06 -13.336c1.238 -11.708 1.366 -66.734 -2.18 -71.344 -2.032 -2.64 -6.688 -2.524 -49.102 -3.206Zm27.662 26.6c-4.662 4.8 -9.326 9.64 -13.988 14.478 4.756 4.85 8.914 9.378 12.614 13.816 1.938 2.326 -1.476 5.018 -3.498 2.984q-6.4 -6.438 -12.824 -12.824c-5.07 5.362 -10.066 10.8 -15.224 16.076 -1.892 1.934 -5.316 -0.758 -3.614 -3.02 2.844 -3.776 11.762 -13.44 15 -16.902 -4.092 -3.93 -8.044 -8 -12.276 -11.786 -4.662 -4.174 0.36 -6.852 2.424 -5.176 2.748 2.23 10.8 10.246 13.582 13 4.662 -4.85 9.17 -9.902 14.048 -14.56a2.718 2.718 0 0 1 3.756 3.916Z" fill="#fb0d12" stroke-width="1"></path></svg>