<svg viewBox="0 0 400 400" xmlns="http://www.w3.org/2000/svg" height="400" width="400" id="No-Email-6--Streamline-Brooklyn.svg"><desc>No Email 6 Streamline Illustration: https://streamlinehq.com</desc><path d="M53.33 114.348c-1.562 -0.45 -31.906 -7.8 -32.496 -7.944a17.058 17.058 0 0 0 -4.87 -0.566c-6.878 0.446 -8.8 8.894 -0.444 13.726 4.056 2.344 8.456 4.122 12.62 6.224a18.462 18.462 0 0 1 8.832 7.4 0.948 0.948 0 0 0 1.722 -0.738c-1.63 -8.15 -19.918 -11.83 -24.724 -17 -2.108 -2.268 -2.336 -6.416 1.33 -7.134 2.556 -0.5 2.526 -0.154 34.536 7.676 2.6 0.636 6.514 1.232 7.946 3.862 2.444 4.484 -5.5 9.7 -3.37 15.57a0.702 0.702 0 0 0 1.352 -0.368c-1.2 -4.948 6.574 -9.432 4.528 -15.4 -1.048 -3.056 -4.112 -4.484 -6.962 -5.308Z" fill="#1d3547" stroke-width="1"></path><path d="M169.02 358.816c-1.54 -6.896 -10.458 -7.43 -20.712 -10.48a18.4 18.4 0 0 1 -9.866 -5.706c-0.738 -0.69 -1.728 0.37 -1.426 1.156 2.942 7.642 21.788 8.056 27.428 12.176 2.388 1.744 3.572 5.692 0.27 7.184 -2.85 1.286 -6.6 0.542 -9.6 0.368 -4.2 -0.244 -20.886 -1.168 -25 -1.4 -2.878 -0.164 -7 0.098 -9.25 -2.092 -3.862 -3.776 3.464 -10.656 0.222 -16.2 -0.444 -0.762 -1.666 -0.274 -1.278 0.59 2.146 4.78 -4.962 10.658 -1.476 16.236 1.768 2.83 5.338 3.516 8.436 3.738 1.236 0.09 25.922 1.434 27.158 1.502 3.47 0.19 7.384 0.872 10.774 -0.172a5.848 5.848 0 0 0 4.32 -6.9Z" fill="#1d3547" stroke-width="1"></path><path d="M269.212 99.664a12.544 12.544 0 0 0 -5.978 -14.44 12.738 12.738 0 0 0 -10.8 -0.344c-6.872 3 -8.758 11.782 -6.4 17.514 4.002 9.698 20.166 9.17 23.178 -2.73Zm-14.242 -2.6a2.238 2.238 0 0 1 4.2 -1.526 2.238 2.238 0 1 1 -4.2 1.518Z" fill="#fb0d12" stroke-width="1"></path><path d="M355.236 100.6c-0.12 -2.116 0.2 -5.918 -2.066 -7.036a5.988 5.988 0 0 0 -2.19 -0.418c-19.902 -0.2 -70.722 0.764 -79.48 0.764a15.65 15.65 0 0 1 0.172 5.19c14.464 -0.222 28.904 -0.542 43.368 -0.836 0.088 4.63 1.122 16.316 1.2 17.12 0.076 0.738 0 1.826 0.714 2.288a19.822 19.822 0 0 0 5.51 0.6c4.614 0.114 29.696 0.102 32.15 -1.574 0.8 -0.55 0.702 -1.82 0.738 -2.682 0.194 -4.466 0.136 -8.966 -0.116 -13.416Z" fill="#fb0d12" stroke-width="1"></path><path d="M16.554 275.13c29.864 -6.064 34.71 -8.956 87.572 -15.276 1.304 -0.156 1.378 -2.218 0 -2.116 -24.042 1.768 -61.91 8.016 -87.99 15.842a0.8 0.8 0 0 0 0.418 1.55Z" fill="#fb0d12" stroke-width="1"></path><path d="M152.268 255.228c24.86 -1.106 46.04 -2.434 82.752 -2.434 21.474 0 20.968 0.434 23.246 -0.124a0.812 0.812 0 0 0 0 -1.55 18.78 18.78 0 0 0 -4.872 -0.418c-41.92 -0.6 -70.75 0.826 -101.152 2.952 -1.006 0.07 -1.032 1.622 0.026 1.574Z" fill="#fb0d12" stroke-width="1"></path><path d="M284.66 252.374c12.18 1.234 40.076 1.316 93.452 10.358a105.744 105.744 0 0 0 11.242 1.6c0.788 0.048 0.886 -1.104 0.172 -1.328 -14 -4.4 -83.164 -12.4 -104.866 -12.226a0.8 0.8 0 0 0 0 1.596Z" fill="#fb0d12" stroke-width="1"></path><path d="M259.716 130.314c-1.586 -0.6 -2.128 0.874 -8.634 3.222 -3.082 1.112 -6.242 1.94 -9.4 2.878 -0.762 0.226 -0.666 1.52 0.2 1.452a44.964 44.964 0 0 0 14.612 -4.158c1.232 -0.56 3.286 -1.11 3.666 -2.582a0.678 0.678 0 0 0 -0.444 -0.812Z" fill="#1d3547" stroke-width="1"></path><path d="M260.972 133.2a68.3 68.3 0 0 1 -14.22 6.346c-1.25 0.38 -3.528 0.474 -4.18 1.748a0.91 0.91 0 0 0 0.318 1.2c0.718 0.542 1.304 0.448 4.92 -0.664a45.6 45.6 0 0 0 14.22 -7.256c0.786 -0.618 -0.23 -1.852 -1.058 -1.374Z" fill="#1d3547" stroke-width="1"></path><path d="M259.988 138.6c-10.588 4.902 -11.666 3.742 -13.4 4.968a0.92 0.92 0 0 0 0.468 1.698 8.832 8.832 0 0 0 3.518 -0.762 44.038 44.038 0 0 0 10.2 -4.552 0.782 0.782 0 0 0 -0.786 -1.352Z" fill="#1d3547" stroke-width="1"></path><path d="M238.316 155.134a1.15 1.15 0 0 0 0 -1.6c-0.246 -0.222 -0.468 -0.444 -0.714 -0.664 2.2 -1.122 4.48 -0.646 10.726 -2.2a52.144 52.144 0 0 0 12.226 -4.502 0.702 0.702 0 0 0 -0.542 -1.278 84.144 84.144 0 0 1 -19.95 4.968 9.434 9.434 0 0 0 -4.2 1.378c-2.018 -1.87 -7.626 -7.158 -8.488 -7.922 3.27 -1.134 4.66 -4.112 7.306 -6.888 4.29 -4.494 8.964 -2.236 12.916 -5.264 1.128 -0.864 0.098 -2.8 -1.156 -1.968a17.6 17.6 0 0 1 -6.766 2.018c-8.112 1.614 -8.172 8.228 -13.628 11a4.814 4.814 0 0 0 -4.4 -0.542 71.542 71.542 0 0 0 -18.918 7.552c1.812 -9.964 3.672 -29.67 -0.442 -38.546 1.304 -0.49 0.342 -7.32 0.2 -8.98 -1.512 -17.168 -6.346 -40.382 -18.104 -52.936a20.434 20.434 0 0 0 -13.334 -7.11c-0.81 -0.1 -0.986 1.238 -0.2 1.428 11.684 2.8 18.412 15.472 22.484 26.764a13.102 13.102 0 0 0 -3.222 3.468c-2.8 3.2 -2.47 8.098 -2.706 11.168a47.032 47.032 0 0 0 -8.266 0.122 207.44 207.44 0 0 0 -29.544 4.134c-10.184 2.18 -27.454 6.896 -36.112 12.668 -7.622 5.082 -9.638 12.07 -8.388 16.4 -4.354 0.738 -6.716 4.354 -9.568 7.454a29.658 29.658 0 0 0 -6.938 5.878 286.188 286.188 0 0 0 -33.946 43.86 160.738 160.738 0 0 0 3.788 -34.536c0 -1.846 -0.478 -2.5 -2.558 -2.632 -3.542 -0.226 -7.11 -0.43 -10.652 -0.64 -2.2 -0.13 -7.868 -1.542 -9.742 -0.542 -3.95 2.11 -7.2 13.432 -8.782 17.466a115.584 115.584 0 0 0 -8.224 38.342c-0.282 11.94 1.7 25.702 11.832 32 9.572 5.952 22.286 2.63 31.832 -3.32 11.928 -7.434 37.096 -37.226 41.08 -37.046 6.816 0.306 9.212 104.484 13.752 149.4 0.38 3.766 1.384 5.092 6.15 5.536 17.362 1.618 17.322 1.928 18.178 0.91a2.818 2.818 0 0 0 0.492 -1.502 906.2 906.2 0 0 0 6.174 -172.8c-0.15 -2.584 0.2 -5.486 0.296 -8.314a6.062 6.062 0 0 1 3.984 -3.962c2.214 1.846 5.364 1.676 8.218 1.28 2.288 -0.318 4.572 -0.722 6.838 -1.2a11.732 11.732 0 0 0 5.978 -2.116 0.626 0.626 0 0 0 0.146 -0.246c0.508 8.752 2.228 19.082 7.6 26.052 13.454 17.426 42.516 -5.484 57.294 -21.99Zm-37.686 -47.2a13.896 13.896 0 0 0 -5.782 -4.4 17.306 17.306 0 0 1 -6.568 -4.454 13.034 13.034 0 0 1 -2.532 -5.484 12.228 12.228 0 0 0 1.77 -2.56 19.024 19.024 0 0 1 6.346 2.436 14.182 14.182 0 0 0 1.92 1.28c2.6 1.082 2.222 -2.746 2.8 -4.256 0.964 5.032 1.772 14.414 2.046 17.432ZM104.2 141.85c-2.89 -1.976 -5 -4.494 -11.93 -5.46 -0.838 -0.116 -0.91 -1.382 0 -1.378a18.294 18.294 0 0 1 13.014 5.732c0.494 0.656 -0.442 1.546 -1.084 1.106Zm7.06 -16.358a25.698 25.698 0 0 0 -11.782 -1.648c4.506 -4.956 7.684 -4.734 14.858 -1.82a13.74 13.74 0 0 0 -3.076 3.468Zm1.968 0.664a12.916 12.916 0 0 1 3.444 -3.098 124.162 124.162 0 0 1 20.812 11.708 13.2 13.2 0 0 0 -3.518 2.4 80.016 80.016 0 0 0 -20.738 -11.01Zm22.6 30.232a16.356 16.356 0 0 1 -3.026 -2.458 25.638 25.638 0 0 0 -11.168 -4.848 0.6 0.6 0 0 1 0.172 -1.18c6.414 -0.054 14.152 5.43 14.932 7.822 0.184 0.54 -0.46 0.862 -0.902 0.664Zm12.274 -3.442c-1.036 -6.564 -6.8 -10.826 -12.348 -14.588 0.32 -0.246 0.634 -0.5 0.958 -0.714a27.81 27.81 0 0 0 2.83 -1.378c5.068 3.846 10.918 8.634 11.34 14.858a8.622 8.622 0 0 0 -2.772 1.822Zm55.258 26.024c-13.366 5.382 -23.646 1.4 -27.06 -21.13 -1.31 -8.658 -0.75 -17.4 -0.81 -26.1a0.69 0.69 0 0 0 -1.378 0 111.734 111.734 0 0 0 -0.69 18.918 0.558 0.558 0 0 0 -0.4 -0.346c-2.17 -0.538 -2.46 0.4 -11.292 1.944a18.716 18.716 0 0 1 -8.314 0.222 1.222 1.222 0 0 0 0.074 -0.418c0.072 -9.4 -9.844 -16.282 -18.2 -21.746a120.366 120.366 0 0 0 -14.366 -8.044c-4.326 -2.048 -9.348 -4.698 -14.268 -4.6 -0.672 -12.8 12.462 -17.664 24.8 -21.746C159.43 86.668 182 86.95 187.2 86.256a17.012 17.012 0 0 1 -1.722 5.166 0.822 0.822 0 0 0 -1.624 0.124 13.242 13.242 0 0 0 5.314 11.536c3.776 2.856 8.23 2.8 10.898 8.562 2.048 4.424 2.064 9.764 2.164 14.538 0.424 20.132 -4.492 30.878 -5.018 35.864 -0.096 0.912 1.23 1.156 1.648 0.444a39.064 39.064 0 0 0 3.272 -10.676 0.974 0.974 0 0 0 0.886 -0.124 71.358 71.358 0 0 1 17.858 -7.454c1.674 -0.44 2.976 -0.86 4.4 0.37 0.118 0.102 10.464 9.686 10.578 9.79 -9.124 10.062 -19.756 19.446 -32.494 24.574Z" fill="#1d3547" stroke-width="1"></path><path d="M307.488 337.8a52.868 52.868 0 0 0 -21.966 14.12 280.836 280.836 0 0 1 14.168 -38.104c0.47 -1.032 -0.61 -2.626 -1.77 -1.772a75.28 75.28 0 0 0 -26.72 36.292 162.522 162.522 0 0 1 -2.434 -22.73 1.306 1.306 0 0 0 -2.412 -0.664 55.468 55.468 0 0 0 -6.6 27.108 95.448 95.448 0 0 0 -30.33 -27.674 1.224 1.224 0 0 0 -1.476 1.92 100.832 100.832 0 0 1 22.212 36.136c0.342 0.936 1.816 0.566 1.526 -0.418a90.2 90.2 0 0 0 -16.114 -30.676 96.42 96.42 0 0 1 24.65 26.15c0.64 1 2.6 0.712 2.46 -0.664a53.438 53.438 0 0 1 3.738 -26.052 171.658 171.658 0 0 0 3.222 23.32 1.31 1.31 0 0 0 2.51 0 72.2 72.2 0 0 1 23.074 -36.676 273.49 273.49 0 0 0 -13.85 39.628 1.316 1.316 0 0 0 2.386 1 50.274 50.274 0 0 1 20.442 -16.188c-4.722 6.446 -9.904 13.828 -8.314 21.87 0.2 0.984 1.668 0.712 1.698 -0.222 0.282 -9.274 6.378 -16.438 11.388 -23.762a1.352 1.352 0 0 0 -1.488 -1.942Z" fill="#fb0d12" stroke-width="1"></path><path d="M377.326 86.06c-10.44 -58.19 -52.222 -53 -113.034 -51.536q-40.626 0.98 -81.178 3.174c-6.148 0.342 -12.568 0.372 -18.424 2.436a29.664 29.664 0 0 0 -12.374 8.6c-9.616 11.026 -11.536 26.13 -12.052 40.54 -0.02 0.518 0.854 0.664 0.934 0.124 1.872 -12.774 3.12 -34.678 19.016 -44.746a34.112 34.112 0 0 1 16.554 -4.428c26.224 -1.666 52.52 -2.522 78.766 -3.222 70.132 -1.876 105.95 -5.848 118.102 42.384 7.4 29.356 3.25 70.412 3.05 81.84 -0.2 0 -145.226 2.156 -145.43 2.166a0.702 0.702 0 0 0 0 1.4c8.032 0.472 14.672 0.32 27.968 0.32 -0.072 35.27 2.158 60.298 2.412 159.746a0.968 0.968 0 0 0 1.844 0.418 4.434 4.434 0 0 0 0.764 -2.238c0 -0.24 -0.97 -124.374 -3.224 -157.976 1.944 0 3.888 -0.024 5.8 -0.024 -0.05 23.836 1 47.698 1.452 71.534 1.6 86.066 -0.154 83.974 2.09 86.638a3.726 3.726 0 0 1 0.91 2.288c0.09 2.854 0.516 -6.862 0.492 -12.766 -0.054 -13.106 -1.126 -116.976 -3.222 -147.744l8.658 -0.074c-0.072 35.524 2.2 61.712 2.412 159.65a0.8 0.8 0 0 0 1.426 0.492c0 -0.026 0.024 -0.026 0.024 -0.05a5.296 5.296 0 0 0 1.132 -3.296c0 -0.224 -1 -123.542 -3.222 -156.844 1.496 -0.018 90.972 -1.316 96.282 -1.87 2.444 -0.256 2.852 -0.282 2.926 -0.86 2.362 -18.308 3.502 -51.79 -0.854 -76.076Z" fill="#1d3547" stroke-width="1"></path></svg>