<svg viewBox="0 0 400 400" xmlns="http://www.w3.org/2000/svg" height="400" width="400" id="No-Files-2--Streamline-Brooklyn.svg"><desc>No Files 2 Streamline Illustration: https://streamlinehq.com</desc><path d="M118.512 145.904a32.738 32.738 0 0 0 4.2 -9.012 6.89 6.89 0 0 0 0.6 -3.02 0.496 0.496 0 0 0 -0.814 -0.216c-0.736 0.918 -0.4 1.228 -2.038 5.776 -0.75 2.092 -1.87 4.076 -2.47 6.21 -0.054 0.24 0.328 0.502 0.522 0.262Z" fill="#191919" stroke-width="1"></path><path d="M126.686 132.41a34.272 34.272 0 0 1 -2.948 10.21 12.8 12.8 0 0 0 -1.438 3.214 0.474 0.474 0 0 0 0.8 0.454 22.338 22.338 0 0 0 3.332 -6.64 17.2 17.2 0 0 0 1.102 -7.262c-0.066 -0.432 -0.756 -0.386 -0.848 0.024Z" fill="#191919" stroke-width="1"></path><path d="M130.45 136.628c-2.224 11.136 -3.554 10.266 -4.052 12.752a0.474 0.474 0 0 0 0.8 0.456c1.422 -1.378 4.124 -8.254 4.074 -13.088a0.414 0.414 0 0 0 -0.822 -0.12Z" fill="#191919" stroke-width="1"></path><path d="M78.432 360.732a0.75 0.75 0 0 0 0.744 0.742c1.72 0 11.834 -0.228 14.094 -0.6 1.902 -0.312 12.888 -59.304 10.548 -106.552a0.372 0.372 0 0 0 -0.744 0 515.918 515.918 0 0 1 -6.376 82.172c-1.506 9.252 -4.45 22.88 -4.338 23.324 -2.4 -0.232 -5.8 0.07 -12.464 0.144 -0.984 -14.382 -0.056 -28.812 -0.864 -43.22a370.546 370.546 0 0 0 -4.146 -41.324c-0.952 -5.582 -3.4 -17.508 -5.826 -22.6 -0.332 -0.696 -1.364 -0.2 -1.2 0.504a178 178 0 0 1 7.94 40.962c3.762 40.46 1.074 42.464 2.632 66.448Z" fill="#191919" stroke-width="1"></path><path d="M160.916 304.784a69.292 69.292 0 0 0 -12.034 -24.498 7.328 7.328 0 0 0 -3.522 -2.95c-2.664 -0.72 -4.454 1.978 -6.018 2.782 -0.886 0.456 -2.2 0.4 -2.42 -0.768a0.698 0.698 0 0 0 -1.366 0.2 2.492 2.492 0 0 0 2.324 2.4 4.748 4.748 0 0 0 3.6 -1.462 6.87 6.87 0 0 1 2.444 -1.654 2.922 2.922 0 0 1 2.782 1.222 36.8 36.8 0 0 1 3.428 4.53 67.06 67.06 0 0 1 9.132 19.752c-3.74 0.048 -7.478 -2.086 -10.714 -3.716a89.442 89.442 0 0 1 -14.814 -9.4c-5.94 -4.684 -4.054 -3.074 0.31 -16.636 0.14 -0.432 -0.56 -0.748 -0.766 -0.312 -1.026 2.162 -1.882 4.382 -2.756 6.6a16.13 16.13 0 0 0 -1.894 5.97 6.354 6.354 0 0 0 2.972 4.386 88.936 88.936 0 0 0 16.4 10.69c3.666 1.85 7.93 4.222 12.178 3.788 0.518 -0.068 0.872 -0.42 0.734 -0.924Z" fill="#191919" stroke-width="1"></path><path d="M112.16 379.38c-4.86 -2.306 -11.106 -4.836 -15.414 -6.448 -4.088 -1.53 -8.13 -3.522 -10.068 0.432 -0.292 0.6 -0.91 2.278 -1.868 1.63 -0.816 -0.552 -1.6 0.79 -0.8 1.342a2.142 2.142 0 0 0 2.4 -0.048c0.978 -0.6 1.242 -1.656 1.8 -2.588 1.476 -2.476 5.73 -0.144 7.672 0.574a160.674 160.674 0 0 1 16.756 7.168c1.076 0.674 2.496 2.112 1.702 3.5 -0.62 1.08 -2.182 1.102 -3.262 1.102 -0.664 0 4.632 0.166 -31.424 -0.886a4.158 4.158 0 0 1 -2.302 -0.336c-2 -1.502 1.142 -7.6 2.062 -13.448a0.472 0.472 0 0 0 -0.912 -0.24c-0.854 2.052 -2.886 8.966 -3.14 10.212 -0.384 1.894 -0.288 4.486 1.918 5.178a18.186 18.186 0 0 0 4.746 0.288c1.894 0.054 24.45 0.75 28.094 0.838 2.182 0.054 5.2 -0.078 5.874 -2.684 0.716 -2.766 -1.752 -4.598 -3.834 -5.586Z" fill="#191919" stroke-width="1"></path><path d="M232.732 208.684a72.874 72.874 0 0 0 -8.102 -22.364 0.746 0.746 0 0 0 -1.03 -0.264c-1.846 1.318 -6.522 3.668 -7.622 0.216a3 3 0 0 1 0.79 -3.116c0.788 -0.674 1.9 -0.864 1.846 -2.134a8.474 8.474 0 0 0 -3.5 -5.442 10.474 10.474 0 0 0 -6.8 -2.108c-3.84 0.132 -8.126 5.152 -10.068 8.486 -5.726 9.832 -5.572 21.584 -5.152 32.72 0.39 10.4 0.692 28.75 -4.484 37.968a0.774 0.774 0 0 0 0.264 1.056 33.2 33.2 0 0 0 20.328 2.756c20.286 -3.9 27.314 -27.546 23.53 -47.774Zm-0.79 16.252c-2.726 25.4 -21.702 36.03 -41.614 27.638a43.426 43.426 0 0 0 3.716 -14.526c2.736 -21.786 -2.614 -36.146 3.524 -51.464 1.8 -4.482 6.2 -11.4 10.738 -11.746a8.628 8.628 0 0 1 8.6 5.25c0.378 0.96 -0.09 1.302 -0.814 1.822a4.26 4.26 0 0 0 0.718 7.166c2.28 1 4.8 -0.12 6.832 -1.294 5.818 12.378 9.772 23.432 8.3 37.154Z" fill="#191919" stroke-width="1"></path><path d="M215.378 175.436a18.336 18.336 0 0 0 3.116 1c1.172 0.37 2.324 0.748 3.452 1.222 3.886 1.634 8.51 3.86 7.382 7.91a2.832 2.832 0 0 0 0.144 2.4 4.474 4.474 0 0 0 4.508 2.062 0.494 0.494 0 0 0 0.12 -0.888 9.178 9.178 0 0 1 -2.878 -1.342c-1.19 -1.152 -0.264 -1.946 -0.264 -3.452 0 -4.152 -5.02 -6.6 -8.892 -8.054a14.326 14.326 0 0 0 -6.64 -1.462c-0.264 0.048 -0.286 0.48 -0.048 0.604Z" fill="#191919" stroke-width="1"></path><path d="M198.024 249.076c3.954 -5.45 4.8 -14.024 5.56 -21.526a78.426 78.426 0 0 0 0.552 -8.726c-0.048 -0.4 -0.652 -0.552 -0.768 -0.096 -1 3.962 -0.4 19.498 -5.872 30.06a0.304 0.304 0 0 0 0.528 0.288Z" fill="#191919" stroke-width="1"></path><path d="M209.2 243.37a62.096 62.096 0 0 0 2.828 -20.064 24.212 24.212 0 0 0 -0.672 -6.8 0.268 0.268 0 0 0 -0.526 0.072c-0.296 3.6 1.564 10.964 -2.182 26.632 -0.048 0.352 0.444 0.494 0.552 0.16Z" fill="#191919" stroke-width="1"></path><path d="M216.336 206.622c4.562 18.986 3 21.278 3.644 26.416 0.046 0.36 0.628 0.528 0.696 0.096 0.624 -3.99 -0.476 -17.642 -3.692 -26.702a0.338 0.338 0 0 0 -0.648 0.19Z" fill="#191919" stroke-width="1"></path><path d="M235.968 166.232c-0.842 -1.052 -2.864 -1.458 -3.474 0a0.326 0.326 0 0 0 0 0.252 0.336 0.336 0 0 0 -0.4 0.036 3.32 3.32 0 0 0 -0.624 4.4 2.6 2.6 0 0 0 4.076 0.2 4.098 4.098 0 0 0 0.422 -4.888Zm-1.342 4.2c-1.266 1.346 -4.19 -0.262 -2.06 -3.546a0.254 0.254 0 0 0 0.062 -0.216 0.542 0.542 0 0 0 0.4 0.096c0.77 -0.136 1.56 -0.242 2.062 0.48a2.728 2.728 0 0 1 -0.464 3.18Z" fill="#191919" stroke-width="1"></path><path d="M372.89 155.542a12.22 12.22 0 0 0 -12.89 -0.504c0.966 -17.614 -14.828 -24.262 -23.444 -18.098a22.496 22.496 0 0 0 -6.376 8.294 12.26 12.26 0 0 0 -13.256 -4.2 13.888 13.888 0 0 0 -9.228 12.586c-6.904 -0.096 -12.54 5.944 -15.174 11.842 -3.464 7.752 0.03 13.86 4.626 15.436a23.03 23.03 0 0 0 -4.29 22.054c4.784 13.828 22.412 18.324 30.514 11.866a20.14 20.14 0 0 0 16.156 13.2c13.06 1.484 22.702 -10.79 18.074 -22.244 4.986 -0.72 9.54 -4.724 12.8 -8.294a38.486 38.486 0 0 0 8 -13.544c3.038 -8.908 3.526 -22.572 -5.512 -28.394Zm-2.278 39.576c-3.156 3.844 -8.986 9.2 -14 9.42a0.676 0.676 0 0 0 -0.576 1 14.816 14.816 0 0 1 -5.2 18.4c-9.476 6.298 -22.558 1.512 -26.462 -10.548a0.718 0.718 0 0 0 -1.176 -0.31 14.218 14.218 0 0 1 -11.266 3.092 20.836 20.836 0 0 1 -18.674 -23.8 21.058 21.058 0 0 1 5.49 -11.362 0.648 0.648 0 0 0 -0.288 -1.078c-5.018 -1.112 -8.272 -7.294 -4.29 -14.934 2.636 -5.058 7.526 -10.284 13.544 -10.692a0.666 0.666 0 0 0 1.27 -0.238 12.882 12.882 0 0 1 8.294 -11.698 10.724 10.724 0 0 1 12.368 4.578 0.7 0.7 0 0 0 1.2 0c1.768 -3.526 3.764 -7.358 7.31 -9.42a12.4 12.4 0 0 1 10.62 -0.504c7.764 3 10.502 11.86 9.636 19.512 -0.076 0.67 0.81 0.884 1.222 0.504 3.28 -3.028 8.388 -2.708 12.082 -0.528a16.116 16.116 0 0 1 6.902 11.8 35.2 35.2 0 0 1 -8.006 26.806Z" fill="#191919" stroke-width="1"></path><path d="M344.6 171.6a66.652 66.652 0 0 0 -7.742 -6.2 0.6 0.6 0 0 0 -0.864 0.168c-5.32 -0.456 -10.658 -0.702 -15.988 -1.224a0.662 0.662 0 0 0 -0.622 0.48 48.884 48.884 0 0 0 -1.416 8.486c-0.346 3.042 -2.288 21.306 -2.732 27.422a0.638 0.638 0 0 0 0.624 0.624c9.172 0.856 18.336 1.666 27.542 1.726a0.666 0.666 0 0 0 0.648 -0.648c0.652 -6.872 1.27 -13.784 1.678 -20.686 0 -0.2 0.486 -8.29 0.382 -8.6 -0.202 -0.638 -1.054 -1.148 -1.51 -1.548Zm-0.072 1.894a31.824 31.824 0 0 0 -4.146 -0.768c-1.416 -0.186 -2.83 -0.264 -4.244 -0.36 -0.014 -0.2 0.4 -4.114 0.4 -5.488a74.63 74.63 0 0 1 7.994 6.618Zm-1.726 28.236c-8.772 -0.118 -17.546 -0.646 -26.272 -1.6 0.48 -5.752 2.324 -23.036 2.638 -25.912a56.624 56.624 0 0 1 1.318 -8.534 88.15 88.15 0 0 0 15.294 0.72 43.476 43.476 0 0 0 -0.48 4.698c-0.074 0.816 -0.474 1.946 0.552 2.2a26.702 26.702 0 0 1 4.65 0.574 28.6 28.6 0 0 0 4.218 0.696c-0.26 6.922 -1.142 20.312 -1.92 27.16Z" fill="#191919" stroke-width="1"></path><path d="M337.126 183.132c-1.936 -1.092 -6.6 -1.27 -8.774 -1.27 -1.054 0 -2.086 -0.16 -3.116 -0.096a0.328 0.328 0 0 0 -0.168 0.6c2.058 1.242 3.6 0.352 8.942 1.342a9.064 9.064 0 0 0 2.852 0.384 0.52 0.52 0 0 0 0.264 -0.96Z" fill="#191919" stroke-width="1"></path><path d="M336.862 187.47a20.962 20.962 0 0 0 -6.112 -0.67 31.476 31.476 0 0 0 -6.09 -0.072c-0.382 0.054 -0.358 0.662 0 0.742a42.768 42.768 0 0 0 6.09 0.576 24.554 24.554 0 0 0 6.112 0.288c0.48 -0.094 0.382 -0.716 0 -0.864Z" fill="#191919" stroke-width="1"></path><path d="M275.472 128.022a22.526 22.526 0 0 1 -0.286 -7.31c0.496 -2.35 2.632 -3.4 4.722 -4.1 1.148 -0.388 3.6 -0.696 3.738 -2.252a8.622 8.622 0 0 0 -0.43 -2.494 8.328 8.328 0 0 0 -1.056 -2.852 0.5 0.5 0 0 0 -0.91 0.384c0.156 0.946 1.234 3.732 1.174 4.41 -0.084 0.96 -1.054 1.104 -1.75 1.342a14 14 0 0 0 -4.77 2.278c-3 2.568 -2.038 7.478 -1 10.762 0.066 0.384 0.62 0.21 0.568 -0.168Z" fill="#191919" stroke-width="1"></path><path d="M284.462 103.716a24.076 24.076 0 0 1 1.966 11.05c0.072 0.432 0.652 0.338 0.8 0a11.086 11.086 0 0 0 -0.072 -5.704 17.134 17.134 0 0 0 -2.062 -5.634c-0.196 -0.314 -0.778 -0.07 -0.632 0.288Z" fill="#191919" stroke-width="1"></path><path d="M288.944 103.094a41.266 41.266 0 0 1 1.078 10.978 0.428 0.428 0 0 0 0.8 0.216 9 9 0 0 0 0.2 -5.4 30.262 30.262 0 0 0 -1.39 -5.968 0.346 0.346 0 1 0 -0.688 0.174Z" fill="#191919" stroke-width="1"></path><path d="M293.426 104.052a16.364 16.364 0 0 1 -1.078 14.742 19.13 19.13 0 0 1 -5.226 5.106c-1.48 1.086 -3.576 2.868 -3.212 4.938a0.386 0.386 0 0 0 0.696 0.096 8.258 8.258 0 0 1 2.2 -3.356c1.03 -0.84 2.2 -1.486 3.236 -2.326a15.616 15.616 0 0 0 4.028 -19.488c-0.184 -0.338 -0.79 -0.094 -0.644 0.288Z" fill="#191919" stroke-width="1"></path><path d="M351.364 173.472a4.536 4.536 0 0 1 5.322 -2.758 4.152 4.152 0 0 1 2.3 5.442c-1.072 2.328 -3.836 3.308 -4.8 5.754 -0.648 1.652 -0.166 4.472 1.918 4.818a0.87 0.87 0 0 0 0.672 -1.582c-3.158 -2.2 1.696 -5.23 3.044 -6.904a5.886 5.886 0 0 0 0.576 -6.568 5.586 5.586 0 0 0 -10.284 1.462 0.646 0.646 0 0 0 1.252 0.336Z" fill="#016496" stroke-width="1"></path><path d="M358.508 191.018c-2.452 -0.054 -1.6 2.96 0.264 2.516a1.434 1.434 0 0 0 0.862 -0.646 1.312 1.312 0 0 0 -1.126 -1.87Z" fill="#016496" stroke-width="1"></path><path d="M49.86 162.54a8.104 8.104 0 0 1 2.156 0.744 5.128 5.128 0 0 0 1.368 0.648 1.628 1.628 0 0 0 1.846 -0.936 3.63 3.63 0 0 0 -1.99 -4.386 3 3 0 0 0 -3.812 0.958c-1.054 0.936 -1.248 2.598 0.432 2.972Zm0.2 -2.4a2.444 2.444 0 0 1 4.2 1.558c0.104 0.866 -0.866 1.072 -1.558 0.694 -1.8 -0.984 -1.858 -0.534 -2.636 -0.886 -0.728 -0.318 -0.326 -0.882 -0.014 -1.362Z" fill="#191919" stroke-width="1"></path><path d="M45.688 151.49a0.756 0.756 0 0 0 0.96 0.264 1.016 1.016 0 0 0 0.144 -1.582c-0.554 -0.552 -1.63 0.266 -1.104 1.318Z" fill="#191919" stroke-width="1"></path><path d="M55.852 147.056c-0.6 0.118 -0.812 1.39 0.048 1.486 0.538 0.09 0.888 -0.564 0.744 -1.03a0.686 0.686 0 0 0 -0.792 -0.456Z" fill="#191919" stroke-width="1"></path><path d="M40.464 148.518a3.276 3.276 0 0 0 2.156 -1.246c0.476 -0.53 1.364 -1.51 1.056 -2.278a0.52 0.52 0 0 0 -0.624 -0.36c-0.696 0.236 -0.934 1.128 -1.4 1.678s-1.104 1 -1.534 1.63a0.4 0.4 0 0 0 0.346 0.576Z" fill="#191919" stroke-width="1"></path><path d="M51.178 143.8c0.694 0.242 1.81 0.568 2.302 -0.2a0.5 0.5 0 0 0 0 -0.48c-0.36 -0.622 -1.2 -0.536 -1.8 -0.694a6.442 6.442 0 0 0 -2.038 -0.576c-0.602 0.054 -0.67 1.174 1.536 1.95Z" fill="#191919" stroke-width="1"></path><path d="M252.676 249.938a89.912 89.912 0 0 1 -11.866 -3.308c-0.652 0.436 -5.8 3.268 -13.132 8.4a0.134 0.134 0 0 1 -0.212 -0.1c-0.18 -2.534 -0.272 -5.068 -0.342 -7.6a28.4 28.4 0 0 1 -17.476 10.906 21.2 21.2 0 0 0 2.352 11.502c0.91 -1.654 2.924 -2.684 4.434 -0.934a3.916 3.916 0 0 1 -0.072 4.722c5.6 2.636 12.11 0.414 16.876 -3.044a65.314 65.314 0 0 0 7.742 -6.688 2.908 2.908 0 0 1 -1.964 -2.638c-0.2 -2.494 2.788 -5.4 4.914 -3a3.14 3.14 0 0 1 0.718 1.726c3.082 -3.438 5.516 -6.594 8.028 -9.944Zm-26.846 11.722a2.842 2.842 0 0 1 -2.374 -2.732c-0.2 -2.496 2.8 -5.418 4.914 -3 1.712 1.964 0.488 6.104 -2.54 5.732Z" fill="#016496" stroke-width="1"></path><path d="M278.972 160.694c-2.58 -0.724 -4.264 2.422 -4 4.628a4.63 4.63 0 0 0 4.962 3.93 4.882 4.882 0 0 0 3.116 -8.27c-0.742 -0.648 -2.042 -1.176 -2.8 -0.334a0.4 0.4 0 0 0 0.168 0.67c0.94 0.326 1.65 0.22 2.302 1.174a3.722 3.722 0 0 1 -2.948 5.49 3.492 3.492 0 0 1 -3.572 -2.54c-0.4 -1.73 0.67 -4.076 2.66 -4.028a0.368 0.368 0 0 0 0.112 -0.72Z" fill="#191919" stroke-width="1"></path><path d="M253.66 157.818a3.188 3.188 0 0 0 -0.696 4.65 3.63 3.63 0 0 0 4.962 0.4 4.05 4.05 0 0 0 0.8 -5.322c-1 -1.442 -3.582 -2.016 -4.34 -0.072 -0.12 0.312 0.288 0.552 0.528 0.4 3.26 -1.662 4.34 2.732 2.038 4.22a2.306 2.306 0 0 1 -2.8 -3.644c0.342 -0.302 -0.106 -0.892 -0.492 -0.632Z" fill="#191919" stroke-width="1"></path><path d="M183.138 153.432c34.962 -15.342 68.862 -29.564 99.574 -48.9a2.2 2.2 0 0 1 -0.024 -1.75 505.578 505.578 0 0 1 -61.964 32.432C197.784 145.62 116.786 181.2 114.246 182.46c-0.288 0.432 -0.6 0.84 -0.888 1.27 4.26 -1.492 65.37 -28.364 69.78 -30.298Z" fill="#016496" stroke-width="1"></path><path d="M272.212 125.458c-15.58 8.15 -32.102 15.474 -47.6 23.54 -47.716 24.82 -66.696 32.478 -81.242 40.27 -0.36 0.2 -0.122 0.836 0.288 0.672 12.224 -4.914 41.128 -19.126 52.782 -24.93 17.2 -8.568 34.16 -18.096 51.442 -26.488 8.486 -4.122 16.276 -7.288 24.666 -11.554 -0.148 -0.504 -0.24 -1.006 -0.336 -1.51Z" fill="#016496" stroke-width="1"></path><path d="M276.336 377.8c0.4 2.258 1.534 4.34 0.958 6.688 -0.622 2.542 -2.66 3.262 -5.058 3.38 -1.468 0.072 -21.178 0.85 -21.812 0.768 -1.726 -0.224 -1.584 -1.776 -0.576 -2.758a17.546 17.546 0 0 1 2.756 -1.942 78.678 78.678 0 0 1 12.442 -6.232c0.4 -0.168 0.29 -0.83 -0.2 -0.694a47.364 47.364 0 0 0 -12.178 5.4 12.8 12.8 0 0 0 -4.506 3.524 2.576 2.576 0 0 0 0.838 3.668c1.19 0.634 1.354 0.42 20.904 -0.312a14 14 0 0 0 5.944 -0.838c3.946 -2.056 3.26 -7.8 1.414 -11.028 -0.262 -0.584 -1.03 -0.2 -0.926 0.376Z" fill="#191919" stroke-width="1"></path><path d="M311.094 387.076c-0.258 -1.824 -2.066 -2.848 -3.476 -3.764A46.166 46.166 0 0 0 294 377a0.36 0.36 0 0 0 -0.2 0.694 78.766 78.766 0 0 1 12.442 6.232 16.4 16.4 0 0 1 2.756 1.942c1 1 1.15 2.534 -0.576 2.758 -0.722 0.092 -19.778 -0.668 -21.812 -0.768 -2.4 -0.118 -4.424 -0.842 -5.058 -3.38 -0.6 -2.352 0.546 -4.43 0.958 -6.688 0.1 -0.55 -0.646 -0.958 -0.958 -0.4 -1.694 2.978 -2.424 7.8 0.4 10.332 1.886 1.692 3.2 1.424 20 2.014a43 43 0 0 0 6.784 0.144 2.452 2.452 0 0 0 2.358 -2.804Z" fill="#191919" stroke-width="1"></path><path d="M306.73 278.536c-0.12 -13.92 -1.842 -30.6 -9.156 -42.5a21.47 21.47 0 0 0 -12.6 -10.284 28.886 28.886 0 0 0 -8.6 -0.24c-12.312 2.676 -21 9.326 -25.026 21 -6.382 18.456 -0.068 41.974 4.314 70.21 8.132 52.386 8.658 55.118 9.302 56.092 0.506 0.766 1.87 0.696 2.684 0.768 3.812 0.336 7.646 0.43 11.482 0.502 0.052 -14.334 2.33 -48.926 -0.982 -106.454a44.87 44.87 0 0 0 -6.736 3.4 0.442 0.442 0 0 1 -0.528 -0.694c4.57 -4.544 13.228 -6.418 15.246 -5.562a0.486 0.486 0 0 1 0.12 0.864c-1.486 0.82 -2.72 0.338 -6.496 1.462 2.586 43.572 1.862 91.018 0.55 107 0.624 0 6.736 0.084 9.182 0.072a13.158 13.158 0 0 0 3.882 -0.2c0.77 -0.26 0.884 -1.2 1.056 -1.892 2.176 -8.856 12.576 -62.382 12.306 -93.544Z" fill="#191919" stroke-width="1"></path><path d="M248.96 247.708c0.2 -0.6 0.378 -1.224 0.576 -1.82 4.1 -12.364 13.618 -19.422 26.44 -22.246a31.38 31.38 0 0 1 4.314 -0.264 20.166 20.166 0 0 1 6.042 0.768c-6.328 -8.582 -14.91 -15.582 -23.252 -22.054a44.924 44.924 0 0 1 1.894 -5.488h-0.024a2.656 2.656 0 0 1 -3.236 -2.638c-0.2 -2.494 2.784 -5.4 4.914 -3a2.76 2.76 0 0 1 0.502 0.84 161.098 161.098 0 0 0 9.158 -21.55 6.456 6.456 0 0 1 -1.6 -9.972 4.6 4.6 0 0 1 4.746 -1.51c0.76 -0.6 -0.2 1.684 3.476 -11.148a64.718 64.718 0 0 0 2.876 -17.882 0.506 0.506 0 0 0 -0.624 -0.478 20.822 20.822 0 0 1 -10.954 -0.816 0.484 0.484 0 0 0 -0.6 0.336 131.4 131.4 0 0 1 -13 28.142 5.8 5.8 0 0 1 -5.728 8.534 248.826 248.826 0 0 1 -24.738 27.782 70.318 70.318 0 0 1 5.514 26.152 2.234 2.234 0 0 1 2.948 0.6c1.648 1.922 0.508 6.062 -2.542 5.706a2.6 2.6 0 0 1 -0.742 -0.2 47.044 47.044 0 0 1 -4.506 15.748 83.776 83.776 0 0 0 18.146 6.458Zm29.748 -30c1.676 1.922 0.484 6.076 -2.54 5.704a2.84 2.84 0 0 1 -2.374 -2.732c-0.194 -2.504 2.806 -5.404 4.914 -2.982Zm0.48 -64.914c1.662 1.918 0.492 6.08 -2.54 5.706a2.844 2.844 0 0 1 -2.374 -2.734c-0.196 -2.504 2.798 -5.422 4.914 -2.982Zm-2.444 -18.456c1.674 1.922 0.482 6.076 -2.542 5.704a2.838 2.838 0 0 1 -2.372 -2.732c-0.198 -2.51 2.804 -5.404 4.914 -2.982Zm-14.168 35.682c1.676 1.922 0.484 6.076 -2.54 5.704a2.84 2.84 0 0 1 -2.374 -2.732c-0.196 -2.47 2.804 -5.392 4.914 -2.972Zm-3.93 48.18c1.662 1.918 0.492 6.08 -2.542 5.706a2.84 2.84 0 0 1 -2.372 -2.732c-0.198 -2.496 2.798 -5.412 4.914 -2.974Zm-11.434 -34.9c1.674 1.922 0.482 6.076 -2.542 5.704a2.838 2.838 0 0 1 -2.372 -2.732c-0.198 -2.472 2.804 -5.394 4.914 -2.972Zm-2.566 25.288a2.838 2.838 0 0 1 -2.372 -2.732c-0.2 -2.494 2.8 -5.418 4.914 -3 1.688 1.944 0.436 6.1 -2.542 5.732Zm0.768 31.426c-0.2 -2.494 2.8 -5.418 4.914 -3 1.668 1.916 0.492 6.076 -2.542 5.706a2.816 2.816 0 0 1 -2.372 -2.706Z" fill="#016496" stroke-width="1"></path><path d="M73.686 109.924a45.722 45.722 0 0 0 -16.8 17.38c7 1.696 6.976 12.292 2.948 15.772 1.538 3.708 5.428 15.846 2.828 20.974 0.024 0 0.048 0.024 0.072 0.024a10.228 10.228 0 0 1 -5.538 4.34 0.436 0.436 0 0 0 -0.2 0.454 49.326 49.326 0 0 0 6.496 11.388 7.956 7.956 0 0 0 1.224 1.63c0.53 0.4 1.486 0.292 2.132 0.334 6.454 0.418 11 -1.784 13.448 -4.746a0.534 0.534 0 0 0 -0.24 -0.886c-4.04 -1.044 -13.284 -13.582 -12.56 -28.814 0.544 -11.458 6.728 -21.774 15.366 -29.076 8.6 -7.264 16.768 -9.314 17.45 -10 -1.336 0.102 -14.558 0.604 -26.626 1.226Z" fill="#016496" stroke-width="1"></path><path d="M285.444 77.2c-6.34 -13.348 -21.088 -16.042 -30.25 -10.474 4.482 -11.386 -0.12 -25.124 -9.302 -32.936 -11.24 -9.566 -27.858 -11.2 -41.732 -7.432 -6.666 1.816 -13.328 5.322 -16.972 11.338 -4.814 -16.718 -23.902 -30.208 -51.154 -27.322 -36.932 1.758 -68.8 30.536 -68.052 69.348A62.148 62.148 0 0 0 75.6 108.63c14.736 -1.34 23.968 -1.142 24.546 -1.174 -9.6 -15.6 -13.66 -30.2 -12.176 -48.158A50.694 50.694 0 0 1 122.012 14.856C149.89 5.276 181.122 16 186.302 39.762a0.714 0.714 0 0 0 1.294 0.168c2.886 -6 8.8 -9.614 14.958 -11.626 12.372 -4.038 28.556 -3.372 40.03 4.65s16.456 23.704 10.26 35.526a0.718 0.718 0 0 0 1.126 0.862c6 -5.096 15 -4.962 21.646 -1.2 10.586 6 14.444 22.556 9.134 33.176a2.238 2.238 0 0 1 1.414 0.4 29.242 29.242 0 0 0 -0.72 -24.518Z" fill="#016496" stroke-width="1"></path><path d="M150.01 220.334a131.818 131.818 0 0 0 -1.318 -14.142c-1.268 -7.672 -5.086 -16.03 -13.16 -18.4 -12.112 -3.57 -26.048 7.866 -36.436 16.492 -2.186 1.816 -8.4 7.05 -9.324 7.838 -0.342 -0.878 -0.68 -1.842 -1.104 -2.708 -11.252 4.662 -31.548 1.814 -41.086 -3.692 -2.566 -1.482 -6.156 -3.39 -7.072 -6.424 -0.1 -0.334 0.438 -0.554 0.576 -0.24a10.702 10.702 0 0 0 4.124 4.028 41.334 41.334 0 0 0 16.586 6.352c8.088 1.514 16.984 2.018 24.8 -0.4a19.272 19.272 0 0 0 7.96 -5.2 152.49 152.49 0 0 0 15.772 -19.056c2.692 -3.728 11.316 -16.2 12.848 -19.296 0.4 -0.974 -0.236 -1.298 -1.134 -1.864 2.63 -6.19 7.282 -6.126 11.106 -18.8a0.366 0.366 0 0 0 -0.672 -0.264 50.63 50.63 0 0 1 -6.304 11.2 29.512 29.512 0 0 0 -5.422 7.094c-0.2 -0.12 -10.096 -5.682 -10.3 -5.8a9.676 9.676 0 0 0 1.46 -3.648c0.376 -2 -0.252 -4 0.12 -5.968 0.482 -2.54 4.144 -5.884 3.068 -8.078 -0.2 -0.4 -0.734 -0.238 -0.862 0.118 -0.27 0.75 -0.2 1.512 -0.528 2.278a26.842 26.842 0 0 0 -2.708 5.398c-0.336 1.75 0.18 3.546 0 5.32a10.906 10.906 0 0 1 -1.476 4.146c-0.95 -0.3 -1.156 0.122 -1.926 0.768 -13.98 11.708 -20.6 17.908 -22.222 19.37 -9.722 8.778 -17.278 7.876 -30.084 4.938 -1.462 -0.336 -2.898 -0.68 -4.338 -1.056a9.172 9.172 0 0 1 -3.812 -1.294 0.4 0.4 0 0 1 0.168 -0.67c1.264 -0.298 1.428 0.19 7.888 1.724 2.296 0.546 4.626 1.032 6.974 1.366a54.034 54.034 0 0 1 -7.022 -12.32 52.324 52.324 0 0 1 -12.106 2.638 11.98 11.98 0 0 0 -0.96 -7.168 1.894 1.894 0 0 0 0.696 -0.432c4.17 2.284 8.26 4.072 12.8 2.78a10.642 10.642 0 0 0 5.082 -3.452c1.736 -3 0.8 -7.454 0.072 -10.786a50.698 50.698 0 0 0 -3.356 -10.714 4.866 4.866 0 0 0 2.8 -3.452c1.742 -6.704 -2.024 -10.426 -5.656 -9.756 0.362 -3.714 -3.832 -8.764 -8.126 -8.15a5.692 5.692 0 0 0 -3 1.57c-0.2 0.026 -4.53 -4.3 -8.8 -1.714A5.414 5.414 0 0 0 32 126.034c-3.236 -1 -6.972 1.128 -8.918 3.69 -2.058 2.712 -2.276 7.096 0.744 9.062 -2.23 2.108 -4.4 4.674 -4.2 7.91 0.2 3 2.542 4.77 5 6a7.57 7.57 0 0 0 -1.222 6.64c0.968 2.346 3.38 2.71 5.632 2.542a3.936 3.936 0 0 0 6.522 1.582 2.342 2.342 0 0 0 0.6 -0.816 6.692 6.692 0 0 0 5.178 2.47 13.912 13.912 0 0 1 0.552 7.07c-4.6 0.41 -6.426 4.788 -7.816 9.182 -3.518 11.134 -1.052 24.6 8.582 35.956 6.226 7.338 13.922 11.278 22.414 20.374 -0.216 0.48 0.53 1.034 0.91 0.576 3.67 -4.412 7.31 -8.844 11.314 -12.968A343 343 0 0 1 108.084 198.64c6.652 -4.946 14.742 -10.542 23.42 -10.212 8.894 0.34 13.832 8.248 15.486 16.182a172.834 172.834 0 0 1 1.966 27.446c-0.11 21.686 -4.222 29.906 -3.884 31.258a33 33 0 0 0 -5.706 0.4 56.778 56.778 0 0 1 -5.776 -0.022c-0.058 -0.324 -6.904 -39.48 -7.12 -39.48a42.626 42.626 0 0 0 4.458 -8.174c0.146 -0.504 -0.578 -0.986 -0.934 -0.552 -1.718 2.088 -7.946 15.864 -22.03 29.868 -8.872 8.822 -19.126 14.2 -30.01 8.126a31.044 31.044 0 0 1 -12.2 -13.2c-0.17 -0.334 -0.8 -0.096 -0.646 0.264 4.092 10 13.928 18.422 25.312 16.756a31.272 31.272 0 0 0 15.438 -7.984 117.678 117.678 0 0 0 19.632 -23.49c0.4 3.236 0.236 0.116 6.88 38.664a0.662 0.662 0 0 0 0.622 0.48 46.2 46.2 0 0 0 11.678 -0.626c0.2 -0.068 1.428 -0.65 1.53 -0.956 4.034 -12.044 4.558 -29.504 3.81 -43.054Zm-108.78 -56.572a5.486 5.486 0 0 1 -5.178 -6.544c0.728 -2.892 2.316 -1.716 3.02 -4.098 0.752 -2.538 -0.574 -5.154 -1.868 -7.334a8.972 8.972 0 0 0 7.046 -6.664 6.74 6.74 0 0 0 6.256 -0.504 5.788 5.788 0 0 0 6.234 3.932c0.216 0.79 0.454 1.582 0.694 2.372 -0.118 -0.04 -0.432 -0.2 -0.432 -0.2a6.814 6.814 0 0 0 -4.242 0.696c-1.6 0.74 -2.732 1.338 -2.732 3.092a3.218 3.218 0 0 0 -1.822 0.838c-0.988 -1.386 -2.308 -1.262 -4.124 -1 -2.27 0.322 -4.774 1.47 -4.41 3.74 0.478 2.976 4.172 2.83 6.304 1.94a3.964 3.964 0 0 0 2.566 -3.882 2.436 2.436 0 0 1 1.558 -0.624 33.308 33.308 0 0 1 4.122 4.914c0.65 1.58 -0.932 1.516 -1.966 1.846a0.4 0.4 0 0 0 0 0.768 2.212 2.212 0 0 0 3.07 -2.734 11.694 11.694 0 0 0 -2.2 -2.972c-0.096 -0.096 -0.2 -0.216 -0.288 -0.312a5.848 5.848 0 0 0 5.762 -2.37 71.108 71.108 0 0 1 1.822 8 10.346 10.346 0 0 1 -0.2 5.6 7.93 7.93 0 0 1 -6.95 4.412c-5.122 0.344 -9.778 -3.25 -10.524 -3.236 -0.512 0.026 -0.99 0.304 -1.518 0.324Zm15.94 -15.1a5.384 5.384 0 0 1 -5.01 1.126 1.496 1.496 0 0 1 -0.4 -2.612 8.244 8.244 0 0 1 4.818 -1.582c1.562 0.362 1.574 2.048 0.592 3.068Zm-9.684 2.182a2.634 2.634 0 0 1 -1.87 2.06c-1.446 0.6 -4.064 1.124 -4.77 -0.79a1.388 1.388 0 0 1 0.504 -1.726c2.204 -1.162 6.314 -2.028 6.136 0.456Z" fill="#191919" stroke-width="1"></path></svg>