<svg xmlns="http://www.w3.org/2000/svg" fill="none" viewBox="0 0 400 400" height="400" width="400" id="Send-And-Receive-Via-Qr-Code--Streamline-Brooklyn.svg"><desc>Send And Receive Via Qr Code Streamline Illustration: https://streamlinehq.com</desc><g id="send-and-receive-via-qr-code--finance-send-and-receive-via-qr-code"><g id="qr code"><path id="Subtract" fill="#191919" fill-rule="evenodd" d="M152.3096 64.2476 147.166 16.8742 199.4 11.2002l2.85 26.2198c-2.192 0.283 -4.3022 0.5788 -6.3306 0.8902L193.742 18.2602l-39.532 4.282 3.43 31.5874c-2.342 2.873 -4.0878 6.2116 -5.3304 10.118Zm-2.5142 20.8842 -6.9394 0.7982 0.728 6.352 6.369 -0.7332c-0.0962 -2.2322 -0.1502 -4.3698 -0.1576 -6.417Zm7.984 76.8488 -15.9254 1.7294 4.254 40.808 6.354 -0.664 -3.59 -34.476 9.7022 -1.0534c-0.2674 -2.1508 -0.5324 -4.2654 -0.7948 -6.344ZM182.798 40.8342l-0.9272 -8.5448 -13.5822 1.4738 1.2492 11.5128c3.7614 -1.7512 8.1556 -3.2034 13.2602 -4.4418ZM114.6632 20.2952l-13.5822 1.4744 1.4504 13.3614 13.5822 -1.4742 -1.4504 -13.3616ZM10 31.7702l52.24 -5.672 5.524 50.854 -52.24 5.672L10 31.7702Zm7.046 5.664 4.142 38.144 39.53 -4.29 -4.142 -38.144 -39.53 4.29Zm102.138 155.9808 13.5804 -1.4736 1.4496 13.3606 -13.5802 1.472 -1.4498 -13.359ZM34.8326 48.2412l13.58 -1.4754 1.4512 13.3572 -13.58 1.4756 -1.4512 -13.3574Zm-10.2848 117.509 5.524 50.8618 52.242 -5.676 -5.514 -50.8578 -52.252 5.672Zm11.188 43.8138 -4.136 -38.1438 39.53 -4.292 4.144 38.1438 -39.538 4.292Zm13.6456 -27.3258 13.5822 -1.4738 1.4496 13.3596 -13.5822 1.4738 -1.4496 -13.3596ZM78.058 115.7364l-22.064 2.4 0.692 6.354 15.708 -1.706 1.64 15.09 -52.43 5.696 0.69 6.354 58.786 -6.382 -3.022 -27.806Zm-42.3298 11.304 6.354 -0.688 -2.472 -22.776 20.806 -2.26 -0.69 -6.354 -42.89808 4.656 0.688 6.354 15.73808 -1.708 2.474 22.776ZM119.906 111.192l22.236 -2.41 4.522 41.658 -6.356 0.69 -3.834 -35.308 -15.878 1.724 1.166 10.724 -22.696 2.468 1.708 15.718 22.096 -2.404 4.312 39.716 -22.1 2.398 2.448 22.552 -6.354 0.692 -3.136 -28.908 22.096 -2.402 -2.93 -27.002 -15.746 1.712 1.224 11.248 -6.356 0.69 -4.308 -39.674 22.696 -2.468 -3.618 -33.324 19.3 -2.096 0.692 6.356 -12.95 1.404 1.766 16.246ZM90.5138 52l16.126 -1.598 2.4 22.07 27.66 -3.004 -0.692 -6.356 -21.304 2.312 -1.726 -15.898 22.466 -2.444 -1.942 -17.872 -6.356 0.69 1.252 11.518 -38.578 4.194 -1.252 -11.52 -6.354 0.686 6.206 57.128 -13.122 1.428 0.692 6.354 13.12 -1.426 1.532 14.106 6.356 -0.692L90.5138 52Z" clip-rule="evenodd" stroke-width="1"></path></g><g id="phone"><path id="vector" fill="#191919" d="M164 216.034c-17.116 -168.8 -41.424 -173.588 80.706 -182.486 27.164 -1.98 38.83 -5.434 68.93 -4.942 46.012 0.754 43.956 0.886 53.2 84.472 3.932 35.538 11.2 108.66 16.436 144.65 10.2 70.122 10.59 97.322 -11.61 108.294 -26.504 13.098 -53 15.2 -83.534 18.356 -40.56 4.2 -47.968 6.6 -72.904 1.658 -16.518 -3.274 -30.434 -12.096 -33.514 -28.822 -5.642 -30.646 -13.232 -96.974 -17.71 -141.18Zm205.828 -29.388c-5.426 -46.944 -12.724 -127.224 -18.312 -140.318 -5.478 -12.84 -15.678 -13.226 -93.24 -7.136 -83.766 6.576 -103.448 7.212 -102.86 42.28 0.568 33.8 24.554 242.288 31.482 275.382 7 33.412 63.714 25.232 97.698 22.042 35.578 -3.338 63.146 -6.272 86.98 -18.874 22.554 -11.928 11.31 -60.376 -1.748 -173.376Z" stroke-width="1"></path><path id="vector_2" fill="#f2484e" d="M317.22 287.482c10.51 -0.574 15.57 -3.252 17.354 3.888 1.048 4.2 2.898 16.066 2.52 19.838 -0.85 8.478 -10.51 11.772 -103.578 17.156 -8.758 0.506 -7.836 -18.334 -7.86 -23.876 -0.042 -10.236 11.906 -5.366 91.564 -17.006Zm-15.768 11.694c-1.038 -4.092 -54.746 3.23 -64.626 5 -1.016 0.182 -2.432 0.29 -2.33 1.55 0.102 1.26 1.568 1.052 2.556 1.22 4.64 0.772 60.918 -6.058 64.4 -7.77Z" stroke-width="1"></path><path id="vector_3" fill="#191919" d="M354.954 169.8382c17.646 162.5078 17.384 162.5098 15.068 162.7518 -2.982 0.314 -33.888 -305.8478 -26.944 -274.0118 0.484 2.222 13.302 111.108 11.876 111.26Z" stroke-width="1"></path><path id="vector_4" fill="#191919" d="M263.264 71.77c-61.6 4.72 -19.12 -20.756 -76.586 -7.15 -11 2.6 -11.144 3.14 -11.572 2.042 -0.77 -1.968 10.51 -4.6 14 -5.478 51.716 -13 16.666 11.516 72.016 6.68 45.866 -4 26.084 -15.164 42.968 -17.684 2.908 -0.434 30.952 -3.622 30.934 -0.73 -0.012 2.072 -21.066 2.652 -30.036 4.656 -14.868 3.32 -1.188 14.56 -41.724 17.664Z" stroke-width="1"></path><path id="vector_5" fill="#191919" d="M363.318 344.032c-77.06 34.748 -155.884 19.038 -153.862 13.338 1.042 -2.942 6.58 6 54.54 4.372 66.716 -2.258 98.288 -21.514 99.322 -17.71Z" stroke-width="1"></path><path id="vector_6" fill="#191919" d="M253.534 57.5378c-4.24 0.438 -4.85 -6.586 -0.668 -7.144 4.594 -0.616 5.04 6.692 0.668 7.144Z" stroke-width="1"></path><path id="vector_7" fill="#191919" d="M267.874 51.8658c0.026 0.5364 -0.156 1.062 -0.512 1.4654 -0.354 0.4032 -0.852 0.6522 -1.388 0.6938 -0.534 0.0416 -1.066 -0.1272 -1.478 -0.4706 -0.414 -0.3436 -0.676 -0.8346 -0.732 -1.3686 -0.03 -0.274 -0.002 -0.5512 0.078 -0.8148 0.08 -0.2638 0.212 -0.5088 0.388 -0.7206 0.176 -0.2118 0.392 -0.3862 0.638 -0.5128 0.244 -0.1266 0.512 -0.2028 0.786 -0.2242 0.276 -0.0214 0.552 0.0126 0.812 0.0998 0.262 0.087 0.504 0.2258 0.71 0.4078 0.208 0.182 0.376 0.4036 0.496 0.6518 0.12 0.2482 0.188 0.5178 0.202 0.793Z" stroke-width="1"></path><path id="vector_8" fill="#191919" d="M203.692 349.912c0.09 0.864 0.478 2.024 -0.886 2.142 -1.364 0.118 -1.136 -1.13 -1.232 -1.966C183.674 194.3338 172.04 80.3778 172.04 80.3778c-0.506 -7.326 1.16 -8.028 2.294 -0.4 3.346 22.5 12.814 111.606 29.358 269.9342Z" stroke-width="1"></path><g id="group"><path id="vector_9" fill="#191919" d="m237.274 124.166 -29.6 3.21 3.126 28.8 29.6 -3.212 -3.126 -28.798ZM214.022 152.2l-2.344 -21.6 22.388 -2.43 2.346 21.6 -22.39 2.43Z" stroke-width="1"></path><path id="vector_10" fill="#191919" d="m277.214 218.088 -7.694 0.834 0.822 7.57 7.694 -0.836 -0.822 -7.568Z" stroke-width="1"></path><path id="vector_11" fill="#191919" d="m266.964 120.8768 -7.694 0.8356 0.824 7.5694 7.692 -0.8354 -0.822 -7.5696Z" stroke-width="1"></path><path id="vector_12" fill="#191919" d="m318.088 144.532 -3.126 -28.8 -29.588 3.208 3.124 28.8 29.59 -3.208Zm-6.338 -24.812 2.344 21.6 -22.388 2.43 -2.344 -21.6 22.388 -2.43Z" stroke-width="1"></path><path id="vector_13" fill="#191919" d="m305.028 127.6698 -7.694 0.835 0.822 7.5696 7.694 -0.8352 -0.822 -7.5694Z" stroke-width="1"></path><path id="vector_14" fill="#191919" d="m229.442 135.8752 -7.692 0.8352 0.822 7.5696 7.692 -0.8352 -0.822 -7.5696Z" stroke-width="1"></path><path id="vector_15" fill="#191919" d="m215.928 203.262 3.126 28.8 29.588 -3.212 -3.124 -28.8 -29.59 3.212Zm6.332 24.812 -2.344 -21.6 22.4 -2.43 2.344 21.6 -22.4 2.43Z" stroke-width="1"></path><path id="vector_16" fill="#191919" d="m237.682 211.764 -7.694 0.836 0.822 7.568 7.694 -0.834 -0.822 -7.57Z" stroke-width="1"></path><path id="vector_17" fill="#191919" d="m246.23 174.934 -12.498 1.358 0.394 3.596 8.898 -0.962 0.93 8.546 -29.698 3.226 0.394 3.598 33.292 -3.612 -1.712 -15.75Z" stroke-width="1"></path><path id="vector_18" fill="#191919" d="m323.846 197.5982 -26.586 2.8918 -0.974 -8.9898 26.694 -2.898 -3.754 -34.544 -16.698 1.81 2.05 18.876 -9.394 1.02 -2.052 -18.884 -10.202 1.17 0.414 3.6 6.582 -0.758 2.046 18.86 16.594 -1.796 -2.05 -18.876 9.504 -1.034 2.972 27.348 -26.7 2.9 1.366 12.5858 -11.294 1.226 2.408 23.108 3.6 -0.374 -2.032 -19.526 19.11 -2.074 0.718 6.622 7.692 -0.836 -0.718 -6.62 7.498 -0.814 1.694 15.618 -22.386 2.43 -0.732 -6.734 -3.6 0.388 1.122 10.334 29.588 -3.21 -2.48 -22.8198Z" stroke-width="1"></path><path id="vector_19" fill="#191919" d="m222.26 181.354 3.602 -0.392 -1.4 -12.898 11.782 -1.278 -0.392 -3.6 -24.298 2.636 0.392 3.602 8.916 -0.968 1.398 12.898Z" stroke-width="1"></path><path id="vector_20" fill="#191919" d="m282.528 170.9942 -12.596 1.368 -1 -9.204 7.336 -0.794 -0.394 -3.6 -10.93 1.188 2.05 18.876 -12.854 1.394 2.438 22.4718 3.6 -0.394 -0.69 -6.3678 8.916 -0.972 1.658 15.2938 -12.518 1.36 1.78 16.374 3.6 -0.394 -1.386 -12.774 12.516 -1.354 -2.444 -22.4938 -12.516 1.36 -0.966 -8.902 12.854 -1.396 -0.66 -6.072 8.994 -0.978 2.172 19.996 3.6 -0.39 -2.56 -23.596Z" stroke-width="1"></path><path id="vector_21" fill="#191919" d="m253.286 138.8358 9.132 -0.904 1.36 12.498 15.664 -1.702 -0.388 -3.6 -12.068 1.31 -0.976 -9.002 12.724 -1.388 -1.104 -10.122 -3.598 0.394 0.708 6.522 -21.848 2.374 -0.708 -6.526 -3.6 0.394 3.514 32.354 -7.43 0.808 0.394 3.6 7.43 -0.808 0.866 7.99 3.6 -0.394 -3.672 -33.798Z" stroke-width="1"></path></g><g id="group_2"><path id="vector_22" fill="#f2484e" d="M329.656 133.2402c-0.48 0.0718 -0.97 -0.0496 -1.36 -0.3374 -0.392 -0.2878 -0.654 -0.7188 -0.728 -1.1986 -2.778 -25.73 -2.104 -26.048 -4.72 -25.764 -21.138 2.298 -22.176 3.058 -22.434 0.674 -0.032 -0.4854 0.132 -0.9632 0.452 -1.3286 0.322 -0.3652 0.774 -0.5882 1.26 -0.6194 24.834 -2.686 25.97 -3.51 26.232 -1.088 3.094 28.524 3.984 29.37 1.298 29.662Z" stroke-width="1"></path><path id="vector_23" fill="#f2484e" d="M206.696 216.054c0.48 -0.072 0.97 0.048 1.36 0.336 0.392 0.288 0.652 0.72 0.726 1.2 2.778 25.728 2.106 26.048 4.72 25.764 21.138 -2.298 22.176 -3.058 22.434 -0.674 0.032 0.486 -0.132 0.962 -0.452 1.328 -0.32 0.366 -0.772 0.588 -1.258 0.62 -24.836 2.686 -25.972 3.508 -26.234 1.088 -3.092 -28.516 -3.992 -29.37 -1.296 -29.662Z" stroke-width="1"></path></g><g id="group_3"><path id="vector_24" fill="#f2484e" d="M198.8002 147.6382c0.4846 -0.0324 0.9366 -0.2552 1.2578 -0.6198 0.32 -0.3646 0.484 -0.8414 0.454 -1.3262 -2.7798 -25.728 -3.5378 -25.894 -0.9218 -26.18 21.1378 -2.296 22.3118 -1.774 22.0538 -4.154 -0.074 -0.48 -0.334 -0.9114 -0.726 -1.1992 -0.39 -0.288 -0.88 -0.4092 -1.36 -0.3368 -24.8418 2.692 -26.1238 2.146 -25.8618 4.578 3.088 28.512 2.412 29.528 5.104 29.238Z" stroke-width="1"></path><path id="vector_25" fill="#f2484e" d="M336.666 202.134c-0.484 0.032 -0.938 0.254 -1.258 0.62 -0.32 0.364 -0.484 0.842 -0.454 1.326 2.778 25.728 3.536 25.896 0.92 26.18 -21.138 2.296 -22.312 1.774 -22.054 4.154 0.074 0.48 0.334 0.912 0.724 1.2 0.392 0.288 0.882 0.41 1.362 0.336 24.834 -2.692 26.116 -2.146 25.854 -4.57 -3.088 -28.52 -2.412 -29.538 -5.094 -29.246Z" stroke-width="1"></path></g></g></g></svg>